<?xml version="1.0" encoding="utf-8"?>
<!-- Generator: Adobe Illustrator 24.1.0, SVG Export Plug-In . SVG Version: 6.00 Build 0)  -->
<svg version="1.1" id="图层_1" xmlns="http://www.w3.org/2000/svg" xmlns:xlink="http://www.w3.org/1999/xlink" x="0px" y="0px"
	 viewBox="0 0 80 80" style="enable-background:new 0 0 80 80;" xml:space="preserve">
<style type="text/css">
	.st0{fill:none;stroke:#000000;stroke-width:0.75;stroke-miterlimit:10;}
</style>
<path d="M38.9,28.5c0.4,0,0.9,0,1.3-0.2l-1.5-1.9l0.2-0.5l0.6,0l1.5,1.9c0.3-0.3,0.5-0.7,0.6-1.1l1-0.1c-0.1,0.9-0.6,1.7-1.3,2.2
	c-0.8,0.5-1.8,0.7-2.7,0.5L38.9,28.5z M43.6,32.9c-0.4-0.9-1.1-1.6-2-2.1c-0.9-0.4-1.9-0.5-2.8-0.2l0.6,0.8c0.4-0.1,0.9-0.1,1.3,0
	l-0.9,2.1l0.4,0.5l0.6,0l0.9-2.1c0.4,0.3,0.7,0.6,0.9,1L43.6,32.9z M43.8,27.2c-0.5,0.7-0.8,1.6-0.7,2.6c0.2,1,0.7,1.8,1.5,2.5
	l0.4-0.9c-0.3-0.3-0.6-0.7-0.7-1.2l2.4-0.1l0.2-0.5l-0.4-0.5L44,29.2c0-0.4,0.1-0.9,0.4-1.2L43.8,27.2z"/>
<g>
	<g>
		<path d="M7,36.7c0.2,0,0.3,0.1,0.4,0.2l16.3,14.4c0.7,0.6,1.1,1.6,1.1,2.5v3.3c0,0.4-0.3,0.7-0.7,0.7c-0.2,0-0.3-0.1-0.4-0.2
			L7.5,43.5c-0.7-0.6-1.2-1.6-1.2-2.5v-3.6C6.3,37,6.7,36.7,7,36.7 M7,34.8c-1.4,0-2.6,1.1-2.6,2.6V41c0,1.5,0.7,3,1.8,4L22.6,59
			c0.5,0.4,1.1,0.6,1.7,0.6c1.4,0,2.6-1.1,2.6-2.6v-3.3c0-1.5-0.6-2.9-1.8-3.9L8.7,35.5C8.2,35.1,7.6,34.8,7,34.8L7,34.8z"/>
	</g>
	<g>
		<path d="M25.5,59.2l-0.7-1.7l49.4-21.3c0.7-0.3,1.2-1,1.2-1.8v-3.2c0-0.5-0.3-1-0.7-1.3l-16-12.7c-0.5-0.4-1.2-0.5-1.8-0.3
			L6.9,36.7l-0.7-1.7l49.9-19.8c1.2-0.5,2.7-0.3,3.7,0.6l15.9,12.7c0.9,0.6,1.5,1.7,1.5,2.8v3.2c0,1.5-0.9,2.9-2.3,3.5L25.5,59.2z"
			/>
	</g>
	<g>
		<rect x="22.6" y="39.8" transform="matrix(0.9222 -0.3867 0.3867 0.9222 -11.8266 22.7139)" width="55.8" height="1.9"/>
	</g>
	<g>
		<ellipse transform="matrix(0.6144 -0.789 0.789 0.6144 -32.0852 33.6935)" cx="18.4" cy="49.7" rx="1" ry="1.4"/>
	</g>
	<g>
		<path d="M13.6,46.2l-2.2-2c-0.3-0.3-0.3-0.7,0-0.9l0,0c0.3-0.3,0.7-0.3,0.9,0l2.2,2c0.3,0.3,0.3,0.7,0,0.9v0
			C14.3,46.4,13.9,46.4,13.6,46.2z"/>
	</g>
	<g>
		<circle cx="38.6" cy="40.2" r="1.6"/>
	</g>
	<g>
		<circle cx="48.6" cy="36.1" r="1.6"/>
	</g>
	<g>
		<circle cx="58.6" cy="32" r="1.6"/>
	</g>
</g>
</svg>
