<svg id="图层_1" data-name="图层 1" xmlns="http://www.w3.org/2000/svg" viewBox="0 0 960 960"><defs><style>.cls-1,.cls-2{fill:none;stroke:#000;stroke-miterlimit:10;}.cls-1{stroke-width:40px;}.cls-2{stroke-width:20px;}</style></defs><path class="cls-1" d="M198.74,158.89l11.49,322.72a39.14,39.14,0,0,0,15.32,29.69h0a60.1,60.1,0,0,0,34.66,12.39L419,528.84q6.87.23,13.75.09c37.51-.76,216.32-5.06,273.5-6.44a55,55,0,0,0,31.72-11h0a35.92,35.92,0,0,0,14.36-27.79L761.27,152a22.34,22.34,0,0,0-22.34-22.94H710.12a44.67,44.67,0,0,0-44.64,43.21l-7.73,237.27a27.41,27.41,0,0,1-27.39,26.52h-61.1a27.41,27.41,0,0,1-27.39-26.35L533,179.14a63.67,63.67,0,0,0-56.93-60.87l-15.32-1.62a338.07,338.07,0,0,0-67.77-.33L221.62,132.79A25.31,25.31,0,0,0,198.74,158.89Z"/><path class="cls-1" d="M233.22,120.06s-12.33-37,27.67-45c31-6.21,124.06-15.43,164.21-19.25a242.43,242.43,0,0,1,37.24-.65L694.49,69a36.57,36.57,0,0,1,34.4,36.51v11.54"/><path class="cls-1" d="M301.89,529.07V689.68a18.08,18.08,0,0,0,16.53,18c25.85,2.22,81,5.78,158.47,4.37,78.19-1.42,136.68-4.36,164-5.94a18.09,18.09,0,0,0,17-18.06V523.66"/><path class="cls-2" d="M405.89,710.07h58a0,0,0,0,1,0,0V852.26a29,29,0,0,1-29,29h0a29,29,0,0,1-29-29V710.07A0,0,0,0,1,405.89,710.07Z"/><path class="cls-2" d="M500.89,710.07h58a0,0,0,0,1,0,0V876.26a29,29,0,0,1-29,29h0a29,29,0,0,1-29-29V710.07A0,0,0,0,1,500.89,710.07Z"/></svg>