<svg id="图层_1" data-name="图层 1" xmlns="http://www.w3.org/2000/svg" viewBox="0 0 80 80"><defs><style>.cls-1,.cls-2,.cls-3,.cls-4{fill:none;stroke:#000;}.cls-1,.cls-3,.cls-4{stroke-linecap:round;}.cls-1,.cls-3{stroke-linejoin:round;}.cls-1,.cls-2{stroke-width:1.5px;}.cls-2,.cls-4{stroke-miterlimit:10;}.cls-4{stroke-width:0.5px;}</style></defs><path class="cls-1" d="M58.35,11.41c0,.85-6.46,1.59-14.41,1.59s-14.42-.65-14.42-1.59S36,9.82,43.94,9.82,58.35,10.57,58.35,11.41Z"/><path class="cls-2" d="M22.45,16.67l.33-1.35A5.25,5.25,0,0,1,26.19,12L31,10.76"/><path class="cls-3" d="M42,60.66h1.12c9.64-.18,11.41-1.17,11.59-1.3,0,0,0,0,0,0l.1-12.71"/><path class="cls-3" d="M54.8,58.6a2.15,2.15,0,0,0,1.31-.1,4.42,4.42,0,0,0,1.11-.74s0,0,0,0c.09-.51.19-12,.19-12"/><line class="cls-3" x1="56.2" y1="46.24" x2="56.2" y2="58.41"/><path class="cls-3" d="M41.78,60.66V70.91a1.58,1.58,0,0,1-1.49,1.63,1.47,1.47,0,0,1-1.5-1.49V60.28"/><path class="cls-3" d="M49.27,60.37v8A1.59,1.59,0,0,1,47.77,70a1.48,1.48,0,0,1-1.49-1.5v-8"/><path class="cls-3" d="M31.2,36.78V33a1.1,1.1,0,0,1,.75-1,3,3,0,0,1,1-.1l3.19.19s.84.09.93,1.31S37,37.81,37,37.81a1.14,1.14,0,0,1-1.22.94c-1.4-.09-.84-.09-3.46-.19a1.44,1.44,0,0,1-.94-.84A2.42,2.42,0,0,1,31.2,36.78Z"/><path class="cls-1" d="M65,15s-.19,25.28-.19,26.31-.28,1-.28,1c-2.43,2.34-5.05,2.71-8.8,4.12s-9.17,1.21-13.29.93S30.17,46,26.9,45.58a5,5,0,0,1-3.18-1.4,2.67,2.67,0,0,1-.66-1.69l-.75-26.4"/><path class="cls-1" d="M22.4,16c.29.56,4.22.94,4.22.94a2.91,2.91,0,0,1,2.53,2.62c.18,2.24.37,16.85.37,18.72a.61.61,0,0,0,.09.38c.28.46.94,1.68,2.16,1.77,1.49.1,4.58.19,4.58.19A2.35,2.35,0,0,0,39,38.37c.19-2.43-.65-19.56-.65-19.56s-.09-1,2.53-.94,6.08.85,12-.09A74.58,74.58,0,0,0,64,15.44"/><path class="cls-1" d="M55.17,10.48c.19,0,5.34.28,7.12.93s2.28,1.5,2.28,2.53v1.31"/><line class="cls-3" x1="32.33" y1="59.16" x2="35.23" y2="59.91"/><path class="cls-3" d="M32.14,59.06a2.27,2.27,0,0,1-1.59-1.12h0V46.14"/><line class="cls-3" x1="32.14" y1="47.64" x2="32.33" y2="59.16"/><path class="cls-3" d="M42,48.77h-3a0,0,0,0,0,0,0l.19,11.47-1,.09a5.71,5.71,0,0,1-2.78-.27s0,0,0,0V48.25a0,0,0,0,0,0,0,9.49,9.49,0,0,1-3-.46"/><line class="cls-3" x1="42.06" y1="60.66" x2="42.06" y2="48.77"/><line class="cls-3" x1="38.97" y1="60.19" x2="41.78" y2="60.66"/><path class="cls-4" d="M34.78,35.05a1.39,1.39,0,0,1,.26.8,1,1,0,1,1-2.06,0,1.13,1.13,0,0,1,.4-.93"/><line class="cls-4" x1="34.11" y1="33.79" x2="34.11" y2="35.38"/></svg>