<svg id="图层_1" data-name="图层 1" xmlns="http://www.w3.org/2000/svg" viewBox="0 0 960 960"><defs><style>.cls-1,.cls-2{fill:none;stroke:#000;stroke-miterlimit:10;}.cls-1{stroke-width:40px;}.cls-2{stroke-width:20px;}</style></defs><path class="cls-1" d="M419,43.69l-46,2s-42,4-41,61c.86,49.18.23,595.69.05,744.68a49.56,49.56,0,0,0,35.81,47.68l53.26,15.37a48.12,48.12,0,0,0,16.06,1.81l141.74-8a48.11,48.11,0,0,0,45.39-47.69L628,330.25c0-3.7-.1-7.41-.38-11.1l-17-225.91A40.44,40.44,0,0,0,573.49,56Z"/><path class="cls-2" d="M501,50.69l-46.31-3s-42,4-41,61c0,1.63,12.62,220,12.62,220s-12.53,505.5-12.58,539.68a49.58,49.58,0,0,0,35.82,47.68"/><ellipse class="cls-2" cx="523.34" cy="254.69" rx="56" ry="73.9"/></svg>