<svg id="图层_1" data-name="图层 1" xmlns="http://www.w3.org/2000/svg" viewBox="0 0 80 80"><path d="M44.4,74a2.7,2.7,0,0,1-.49,0l-9-1.39a3.19,3.19,0,0,1-2.73-3.18V35.54c0-1.08,0-2.17.11-3.24l1.28-18.82a3.15,3.15,0,0,1,1.12-2.41,3.23,3.23,0,0,1,2.59-.74l9,1.39A3.21,3.21,0,0,1,49,14.9L47.73,33.27c-.07,1.07-.11,2.16-.11,3.23V70.78A3.22,3.22,0,0,1,44.4,74ZM36.83,11.51a2,2,0,0,0-1.31.48,2,2,0,0,0-.7,1.53L33.54,32.38c-.07,1-.11,2.11-.11,3.16V69.39a2,2,0,0,0,1.7,2l9,1.38a2,2,0,0,0,2.32-2V36.5c0-1.1,0-2.21.11-3.31L47.8,14.86a2,2,0,0,0-1.71-1.94l-9-1.39Z"/><path d="M44.68,74l-.27-1.18,6.78-1.56a2.39,2.39,0,0,0,1.86-2.33V11.59a.92.92,0,0,0-.78-.91L43.59,9.24a2.41,2.41,0,0,0-1.19.12l-6.74,2.51-.43-1.14L42,8.22a3.61,3.61,0,0,1,1.81-.17l8.69,1.43a2.13,2.13,0,0,1,1.79,2.11V68.91a3.58,3.58,0,0,1-2.8,3.51Z"/><path d="M40.39,30.83c-3,0-5.38-2.95-5.38-6.57s2.41-6.56,5.38-6.56,5.37,2.94,5.37,6.56S43.35,30.83,40.39,30.83Zm0-11.92c-2.3,0-4.17,2.4-4.17,5.35s1.87,5.36,4.17,5.36,4.16-2.4,4.16-5.36S42.68,18.91,40.39,18.91Z"/><path d="M53.25,68.67h-.88a1.22,1.22,0,0,1-1.31-1.3l.62-49.21a.81.81,0,0,0-.67-.81h-.46A.67.67,0,0,1,50,16.7l.11-3.52a1.87,1.87,0,0,0-1.28-1.71L39.94,9.81l.08-.4,8.84,1.67a2.26,2.26,0,0,1,1.61,2.12l-.1,3.5a.26.26,0,0,0,.22.25H51a1.23,1.23,0,0,1,1.05,1.22l-.62,49.2a.82.82,0,0,0,.9.9h.88Z"/></svg>