<svg id="图层_1" data-name="图层 1" xmlns="http://www.w3.org/2000/svg" viewBox="0 0 80 80"><path d="M56.66,59.88h-.4l-45-4.5a3.91,3.91,0,0,1-3.5-3.9L8.26,26a3.72,3.72,0,0,1,1.3-2.8,4,4,0,0,1,2.9-1l45,4.5a3.91,3.91,0,0,1,3.5,3.9l-.4,25.5a3.72,3.72,0,0,1-1.3,2.8A3.54,3.54,0,0,1,56.66,59.88Zm-.2-1.4a2.21,2.21,0,0,0,1.9-.6,2.5,2.5,0,0,0,.8-1.8l.4-25.5a2.42,2.42,0,0,0-2.2-2.5l-45-4.5a2.21,2.21,0,0,0-1.9.6,2.5,2.5,0,0,0-.8,1.8l-.4,25.5a2.5,2.5,0,0,0,2.2,2.5Z"/><path d="M56.66,59.88h-.4l-45-4.5a3.91,3.91,0,0,1-3.5-3.9L8.26,26a3.72,3.72,0,0,1,1.3-2.8,4,4,0,0,1,2.9-1l45,4.5a3.91,3.91,0,0,1,3.5,3.9l-.4,25.5a3.72,3.72,0,0,1-1.3,2.8A3.54,3.54,0,0,1,56.66,59.88Zm-.2-1.4a2.21,2.21,0,0,0,1.9-.6,2.5,2.5,0,0,0,.8-1.8l.4-25.5a2.42,2.42,0,0,0-2.2-2.5l-45-4.5a2.21,2.21,0,0,0-1.9.6,2.5,2.5,0,0,0-.8,1.8l-.4,25.5a2.5,2.5,0,0,0,2.2,2.5Z"/><path d="M56.76,57.08h-.1l-45-4.5a1.18,1.18,0,0,1-1-1.1l.4-25.5a1,1,0,0,1,1.1-1l45.1,4.5a1.18,1.18,0,0,1,1,1.1l-.4,25.5A1.16,1.16,0,0,1,56.76,57.08Zm-.1-.9h0a.22.22,0,0,0,.2-.2l.4-25.5a.35.35,0,0,0-.1-.2l-45.1-4.5a.35.35,0,0,0-.1.2l-.4,25.5a.35.35,0,0,0,.1.2Z"/><path d="M28.86,41.48h0l-1.9-.2a1.06,1.06,0,0,1-.9-1v-7.9a.78.78,0,0,1,.3-.7,1.14,1.14,0,0,1,.8-.3l1.8.2a1.06,1.06,0,0,1,.9,1v7.9a.78.78,0,0,1-.3.7A.91.91,0,0,1,28.86,41.48Zm0-.9h0l.1-8a.1.1,0,0,0-.1-.1l-1.8-.2-.1.1v7.9a.1.1,0,0,0,.1.1Z"/><path d="M39.56,41.68h-.1l-1.1-.1a1.3,1.3,0,0,1-1.2-1.3v-5.4a1.78,1.78,0,0,1,.4-1,1.31,1.31,0,0,1,1-.3l1.1.1a1.3,1.3,0,0,1,1.2,1.3v5.4a1.78,1.78,0,0,1-.4,1A1.61,1.61,0,0,1,39.56,41.68Zm-1.2-7.3a.35.35,0,0,0-.4.4v5.4a.43.43,0,0,0,.4.4l1.1.1a.35.35,0,0,0,.4-.4v-5.4a.43.43,0,0,0-.4-.4l-1.1-.1Z"/><path d="M36.66,52.48l-7.2-.8v-4.1a3.28,3.28,0,0,1,3.7-3.3,4,4,0,0,1,3.5,3.9Zm-6.3-1.6,5.4.6v-3.2a3,3,0,0,0-2.7-3,2.21,2.21,0,0,0-1.9.6,2.34,2.34,0,0,0-.8,1.8Z"/><path d="M35.46,50.88l-4.3-.5v-2.5a1.87,1.87,0,0,1,2.2-1.9h0a2.48,2.48,0,0,1,2.2,2.4v2.5Z"/><path d="M58.56,59.38l-.5-1.3,10.5-4.3a3.31,3.31,0,0,0,2-3.1V28.18a4.42,4.42,0,0,0-1.1-3.2,3.45,3.45,0,0,0-2.3-.9l-43.1-3.7-12.9,3-.3-1.3L24,19h.1l43.1,3.7a4.74,4.74,0,0,1,3.2,1.2,5.68,5.68,0,0,1,1.5,4.2v22.5a4.55,4.55,0,0,1-2.9,4.3Z"/><path d="M66.16,46.68c-1.6,0-2.8-2.4-2.8-5.4s1.2-5.4,2.8-5.4,2.8,2.4,2.8,5.4S67.76,46.68,66.16,46.68Zm0-9.9c-.9,0-1.9,1.8-1.9,4.5s1,4.5,1.9,4.5,1.9-1.8,1.9-4.5S67.06,36.78,66.16,36.78Z"/></svg>