<svg id="图层_1" data-name="图层 1" xmlns="http://www.w3.org/2000/svg" viewBox="0 0 960 960"><defs><style>.cls-1,.cls-2,.cls-3{fill:none;stroke:#000;stroke-miterlimit:10;}.cls-1{stroke-width:40px;}.cls-2{stroke-width:10px;}.cls-3{stroke-width:20px;}</style></defs><path class="cls-1" d="M855,251.55c44,12,70,35.3,70,77.64V631.67c0,36.54-24.47,67.18-56.68,71l-615.5,72.51c-20,2.36-31.82-6.6-60.82-16.6"/><path class="cls-2" d="M246.14,735.55C235,735.55,223,723,223,704.19V401.71c0-15.84,9.58-29.86,21.36-31.25L859.86,298a17.15,17.15,0,0,1,2-.12c11.17,0,23.14,12.6,23.14,31.36V631.67c0,15.84-9.58,29.86-21.36,31.25l-615.5,72.51A16.9,16.9,0,0,1,246.14,735.55Z"/><path class="cls-1" d="M218.1,768.1,66.28,712.91A47.49,47.49,0,0,1,35,668.27V336.53a88.88,88.88,0,0,1,78.44-88.25l535.23-63.21a88.76,88.76,0,0,1,41.45,5L882,261.55"/><path class="cls-3" d="M459,431.92V538.43a10.3,10.3,0,0,0,12,10.17L493.35,545A10.31,10.31,0,0,0,502,534.78V427.24a10.31,10.31,0,0,0-12.42-10.09l-22.38,4.68A10.31,10.31,0,0,0,459,431.92Z"/><path class="cls-3" d="M627,431.58v92.57c0,5.52,5.69,9.73,12,8.84l22.39-3.16c5-.71,8.65-4.45,8.65-8.85V427.51c0-5.69-6-9.93-12.42-8.77l-22.38,4.07C630.42,423.68,627,427.34,627,431.58Z"/><path class="cls-3" d="M532,662.53V602.19a44,44,0,0,1,40.51-43.87h0A44,44,0,0,1,620,602.19v51.36a4.48,4.48,0,0,1-4,4.45l-79,9A4.48,4.48,0,0,1,532,662.53Z"/><path class="cls-3" d="M868.32,702.64l-615.5,72.51c-37.33,4.4-69.82-28.62-69.82-71V401.71c0-36.54,24.47-67.18,56.68-71l615.5-72.51c37.33-4.4,69.82,28.62,69.82,71V631.67C925,668.21,900.53,698.85,868.32,702.64Z"/></svg>