<svg id="图层_1" data-name="图层 1" xmlns="http://www.w3.org/2000/svg" viewBox="0 0 80 80"><path d="M47.16,75.78a5.69,5.69,0,0,1-1.6-.3l-.3-.1c-.8-.2-13.2-4.4-13.9-4.6l-.3-.1h0s-2.6-.8-2.7-2.7V46.48c0-15.5.1-34.7,0-36.8a1,1,0,0,1,.1-.9c.3-.6,1.1-1.1,2.6-1.6a13.1,13.1,0,0,1,5.3-.3c3.1.3,13.1,1.7,14.1,1.9l.3.1c1,.2,2.7.5,2.8,1.9,0,.2.1,55.1,0,60.6,0,.5-.7,1.4-.9,1.7a11.47,11.47,0,0,1-4,2.5A7.72,7.72,0,0,1,47.16,75.78ZM30,9.38v.3c.1,2,0,20.5,0,36.8,0,10.7-.1,20.9,0,21.4s1.2,1.2,1.6,1.3a1,1,0,0,0,.3.1c.6.2,13.1,4.4,13.8,4.6l.4.1a2.54,2.54,0,0,0,2.1,0,12,12,0,0,0,3.4-2c.1-.2.5-.7.6-.9.1-5.1,0-60.1,0-60.3s-1.2-.4-1.5-.5l-.4-.1c-.9-.2-10.8-1.6-14-1.9a11.84,11.84,0,0,0-4.7.3l-.2-.7.2.7A4.9,4.9,0,0,0,30,9.38Z"/><path d="M39.46,39a5,5,0,0,1-1.2-.2,7.34,7.34,0,0,1-4.5-3.7c-1.9-3.4-1.4-7.4,1.1-9a4.46,4.46,0,0,1,3.6-.5,7.34,7.34,0,0,1,4.5,3.7c1.9,3.4,1.4,7.4-1.1,9A4,4,0,0,1,39.46,39Zm-2.3-12.6a3.45,3.45,0,0,0-1.8.5c-2.1,1.3-2.4,4.8-.8,7.7a6.05,6.05,0,0,0,3.9,3.2,3.4,3.4,0,0,0,2.8-.4c2.1-1.3,2.4-4.8.8-7.7a6.05,6.05,0,0,0-3.9-3.2C37.86,26.48,37.56,26.38,37.16,26.38Z"/><path d="M47.46,13.28h-.2a70.59,70.59,0,0,1-8.3-1.1c-1.6-.2-3.3-.5-5-.8-5.4-.8-5.4-1.2-5.5-1.7l-.1-.6.5-.3.3.7.5-.5c.1.1.8.4,4.5.9,1.7.2,3.4.5,5,.8,3.6.6,6.6,1,8.1,1.1a11.64,11.64,0,0,0,3.8-.6c.7-.3,1.1-.5,1.2-.7-.1.1-.1.2-.1.4l1.5-.2a1.08,1.08,0,0,1-.2.8,3.91,3.91,0,0,1-1.6,1A14.14,14.14,0,0,1,47.46,13.28Z"/><rect x="15.62" y="43.05" width="62.5" height="1.5" transform="translate(2.76 90.38) rotate(-89.63)"/></svg>