<svg id="图层_1" data-name="图层 1" xmlns="http://www.w3.org/2000/svg" viewBox="0 0 960 960"><defs><style>.cls-1,.cls-2,.cls-3{fill:none;stroke:#000;stroke-miterlimit:10;}.cls-1{stroke-width:40px;}.cls-2{stroke-width:20px;}.cls-3{stroke-width:10px;}</style></defs><path class="cls-1" d="M412.55,51.9l-58.68,3.23A16.26,16.26,0,0,0,338.5,71.36V885.19a13.19,13.19,0,0,0,11.19,13l57.44,8.84a137.54,137.54,0,0,0,34,1l159.94-15.24a22.58,22.58,0,0,0,20.45-22.48V97.65a31.22,31.22,0,0,0-28.4-31.09L435.54,52.31A159,159,0,0,0,412.55,51.9Z"/><line class="cls-2" x1="422.18" y1="51.27" x2="422.18" y2="908.73"/><ellipse class="cls-3" cx="523.25" cy="374.7" rx="60.64" ry="78.04"/></svg>