<?xml version="1.0" encoding="utf-8"?>
<!-- Generator: Adobe Illustrator 24.1.0, SVG Export Plug-In . SVG Version: 6.00 Build 0)  -->
<svg version="1.1" id="图层_1" xmlns="http://www.w3.org/2000/svg" xmlns:xlink="http://www.w3.org/1999/xlink" x="0px" y="0px"
	 viewBox="0 0 80 80" style="enable-background:new 0 0 80 80;" xml:space="preserve">
<g>
	<g>
		<path d="M17.6,64.1c-0.9-0.8-1.5-2-1.5-3.3l-0.5-29.7c0-2.3,1.7-4.3,4.1-4.5l52.4-5.2c1.2-0.1,2.4,0.3,3.4,1.2
			c0.9,0.8,1.5,2,1.5,3.3l0.6,29.7c0,2.3-1.7,4.3-4.1,4.5l-52.4,5.2c-0.1,0-0.3,0-0.5,0C19.5,65.3,18.4,64.9,17.6,64.1z M73.2,58.4
			c1.4-0.1,2.6-1.4,2.6-2.9l-0.5-29.7c0-0.8-0.3-1.5-0.9-2.1c-0.6-0.6-1.4-0.8-2.2-0.7l-52.4,5.2c-1.5,0.1-2.6,1.4-2.6,2.9l0.5,29.7
			c0,0.8,0.3,1.5,0.9,2.1c0.6,0.6,1.4,0.8,2.2,0.7L73.2,58.4z"/>
	</g>
	<g>
		<path d="M17.6,64.1c-0.9-0.8-1.5-2-1.5-3.3l-0.5-29.7c0-2.3,1.7-4.3,4.1-4.5l52.4-5.2c1.2-0.1,2.4,0.3,3.4,1.2
			c0.9,0.8,1.5,2,1.5,3.3l0.6,29.7c0,2.3-1.7,4.3-4.1,4.5l-52.4,5.2c-0.1,0-0.3,0-0.5,0C19.5,65.3,18.4,64.9,17.6,64.1z M73.2,58.4
			c1.4-0.1,2.6-1.4,2.6-2.9l-0.5-29.7c0-0.8-0.3-1.5-0.9-2.1c-0.6-0.6-1.4-0.8-2.2-0.7l-52.4,5.2c-1.5,0.1-2.6,1.4-2.6,2.9l0.5,29.7
			c0,0.8,0.3,1.5,0.9,2.1c0.6,0.6,1.4,0.8,2.2,0.7L73.2,58.4z"/>
	</g>
	<g>
		<path d="M19.2,60.8l-0.5-29.7c0-0.7,0.6-1.2,1.2-1.3l52.5-5.2c0.7,0,1.3,0.5,1.3,1.2l0.5,29.7c0,0.7-0.6,1.2-1.2,1.3L20.6,62h-0.1
			C19.9,62,19.4,61.5,19.2,60.8z M73,55.7c0,0,0.1-0.1,0.1-0.2l-0.5-29.7c0-0.1-0.1-0.2-0.1-0.2l-52.5,5.2c0,0-0.1,0.1-0.1,0.2
			l0.5,29.7c0,0.1,0.1,0.2,0.2,0.2l0,0L73,55.7z"/>
	</g>
	<g>
		<path d="M52.2,43.5c-0.2-0.1-0.3-0.5-0.3-0.8v-9.2c0-0.6,0.5-1,1-1.2l2.1-0.2c0.3,0,0.7,0.1,0.9,0.3c0.2,0.1,0.3,0.5,0.3,0.8v9.2
			c0,0.6-0.5,1-1,1.2L53,43.8c0.1,0,0,0,0,0C52.6,43.8,52.4,43.7,52.2,43.5z M55.1,42.6c0.1,0,0.1-0.1,0.1-0.1v-9.2l-0.1-0.1
			L53,33.4c-0.1,0-0.1,0.1-0.1,0.1l0.1,9.3c-0.1,0,0,0,0,0L55.1,42.6z"/>
	</g>
	<g>
		<path d="M39.5,43.7C39.3,43.4,39,43,39,42.6v-6.3c0-0.8,0.6-1.4,1.4-1.5l1.3-0.1c0.3-0.1,0.8,0.1,1.2,0.3c0.2,0.3,0.5,0.7,0.5,1.2
			v6.3c0,0.8-0.6,1.4-1.4,1.5l-1.3,0.1h-0.1C40.2,44.1,39.8,44,39.5,43.7z M41.9,35.6l-1.3,0.1c-0.2,0-0.5,0.2-0.5,0.5v6.3
			c0,0.1,0,0.2,0.1,0.3c0.1,0.1,0.2,0.1,0.3,0.1l1.3-0.1c0.2,0,0.5-0.2,0.5-0.5V36c0-0.1,0-0.2-0.1-0.3
			C42.2,35.6,42.1,35.6,41.9,35.6C41.9,35.6,41.8,35.6,41.9,35.6z"/>
	</g>
	<g>
		<path d="M43.9,51.6c0-2.2,1.7-4.3,4.1-4.5c1.2-0.1,2.2,0.2,3,0.9c0.8,0.8,1.3,1.7,1.3,2.9v4.8l-8.4,0.9V51.6z M51.2,51.1
			c0-0.8-0.3-1.6-0.9-2.1c-0.6-0.6-1.4-0.8-2.2-0.7C46.4,48.4,45,50,45,51.8v3.7l6.3-0.7C51.2,54.8,51.2,51.1,51.2,51.1z"/>
	</g>
	<g>
		<path d="M45.2,54.8v-2.9c0-1.4,1.2-2.7,2.6-2.8l0,0c1.4-0.2,2.6,0.8,2.6,2.2v2.9l-5,0.6H45.2z"/>
	</g>
	<g>
		<path d="M6.3,59.4c-2.1-0.8-3.4-2.8-3.4-5V28.2c0-2.1,0.6-3.7,1.7-4.9C6.3,21.8,8.4,22,8.4,22l50.2-4.3h0.1l15.2,3.6l-0.3,1.5
			l-15-3.5L8.4,23.6c-0.1,0-1.6,0-2.7,1c-0.8,0.8-1.3,2.1-1.3,3.7v26.2c0,1.6,0.9,3,2.3,3.6l12.2,5l-0.6,1.5L6.3,59.4z"/>
	</g>
	<g>
		<path d="M6.3,43.6c0-3.5,1.4-6.3,3.3-6.3s3.3,2.8,3.3,6.3s-1.4,6.3-3.3,6.3S6.3,47.1,6.3,43.6z M7.4,43.6c0,3.1,1.2,5.2,2.2,5.2
			s2.2-2.2,2.2-5.2c0-3.1-1.2-5.2-2.2-5.2S7.4,40.5,7.4,43.6z"/>
	</g>
</g>
<path d="M31.1,35.1c-0.8,0.8-2,1.4-3.1,1.5c-1.3,0.1-2.3-0.3-3.1-1l1-0.7c0.5,0.3,0.9,0.6,1.5,0.6v-2.9l0.6-0.3l0.6,0.2v2.9
	c0.6-0.1,1-0.5,1.5-0.8L31.1,35.1z M29.8,41.3c-0.1-0.5-0.1-1,0.1-1.6l2.4,1.3l0.6-0.5v-0.7l-2.3-1.2c0.3-0.5,0.8-0.8,1.3-1v-1.3
	c-1,0.5-2.1,1.2-2.7,2.3c-0.6,1-0.7,2.3-0.5,3.4L29.8,41.3z M24.1,38.2c0.5,0.1,0.9,0.5,1.3,0.8l-2.3,1.6v0.7l0.6,0.2l2.4-1.6
	c0.1,0.6,0.2,1,0.1,1.6l1,0.6c0.2-1.2,0.1-2.3-0.5-3.4c-0.6-1-1.6-1.6-2.7-1.9V38.2z"/>
</svg>
