<svg id="图层_1" data-name="图层 1" xmlns="http://www.w3.org/2000/svg" viewBox="0 0 80 80"><path d="M52.16,71.88a3.37,3.37,0,0,1-3.4-3.4v-1.8H16.16a4.07,4.07,0,0,1-.6-8.1l.4-.1V24.78l-.4-.1a4.07,4.07,0,0,1,.6-8.1h40.6a4.07,4.07,0,0,1,.6,8.1l-.4.1v18h9.7a3.37,3.37,0,0,1,3.4,3.4v22.3a3.37,3.37,0,0,1-3.4,3.4Zm-1.8-3.5a1.79,1.79,0,0,0,1.8,1.8h14.4a1.79,1.79,0,0,0,1.8-1.8v-3.1h-18Zm-34.2-8.3a2.5,2.5,0,1,0,0,5h32.6v-4.9H16.16Zm36-15.7a1.79,1.79,0,0,0-1.8,1.8v17.5h18V46.18a1.79,1.79,0,0,0-1.8-1.8Zm-34.5,14h31.1V46.08a5,5,0,0,1,.2-1.2l.2-.6H17.66Zm0-15.7h37.7v-4.9H17.66Zm0-6.5h37.7v-4.9H17.66Zm0-6.6h37.7v-4.9H17.66Zm-1.5-11.4a2.5,2.5,0,0,0,0,5h40.6a2.5,2.5,0,0,0,0-5Zm43.2,41.9a1.42,1.42,0,0,1-.6-.2l-2.6-2.6a.78.78,0,0,1,0-1.1.73.73,0,0,1,.6-.2,1.42,1.42,0,0,1,.6.2l2.1,2.1,2.1-2.1a.73.73,0,0,1,.6-.2,1.42,1.42,0,0,1,.6.2.78.78,0,0,1,0,1.1l-2.6,2.6A4.5,4.5,0,0,1,59.36,60.08Zm2.7-7.9a1.42,1.42,0,0,1-.6-.2l-2.1-2.1L57.26,52a.73.73,0,0,1-.6.2,1.42,1.42,0,0,1-.6-.2.78.78,0,0,1,0-1.1l2.6-2.6a.73.73,0,0,1,.6-.2,1.42,1.42,0,0,1,.6.2l2.6,2.6a.78.78,0,0,1,0,1.1C62.46,52.08,62.26,52.18,62.06,52.18Z"/></svg>