<svg id="图层_1" data-name="图层 1" xmlns="http://www.w3.org/2000/svg" viewBox="0 0 960 960"><defs><style>.cls-1,.cls-2{fill:none;stroke:#000;stroke-miterlimit:10;}.cls-1{stroke-width:20px;}.cls-2{stroke-width:40px;}</style></defs><path class="cls-1" d="M232.14,166.9,207.87,169a31.88,31.88,0,0,0-25.14,16.39l-13.4,24.38a31.86,31.86,0,0,0,.7,31.89l10.61,17.45a31.85,31.85,0,0,0,30,15.18l24.28-2.12A31.87,31.87,0,0,0,260,255.8l13.4-24.38a31.86,31.86,0,0,0-.7-31.89l-10.61-17.45A31.87,31.87,0,0,0,232.14,166.9Z"/><path class="cls-1" d="M232.64,272.6l-24.18,1.27a31.88,31.88,0,0,0-26.12,16.24l-12.88,23a31.86,31.86,0,0,0,.42,31.88l11.2,18.82a31.85,31.85,0,0,0,29,15.51L234.31,378a31.83,31.83,0,0,0,26.12-16.24l12.88-23a31.86,31.86,0,0,0-.41-31.87l-11.21-18.82A31.88,31.88,0,0,0,232.64,272.6Z"/><path class="cls-1" d="M233.17,379.61,209,380a31.88,31.88,0,0,0-27.11,16.05l-12.34,21.6a31.86,31.86,0,0,0,.14,31.87l11.78,20.2a31.86,31.86,0,0,0,28.09,15.8l24.13-.42a31.88,31.88,0,0,0,27.11-16.05l12.34-21.6a31.86,31.86,0,0,0-.14-31.87l-11.78-20.2A31.85,31.85,0,0,0,233.17,379.61Z"/><path class="cls-1" d="M233.17,485.54,209,486a31.88,31.88,0,0,0-27.11,16l-12.34,21.6a31.84,31.84,0,0,0,.14,31.86l11.78,20.2a31.87,31.87,0,0,0,28.09,15.81l24.13-.43a31.86,31.86,0,0,0,27.11-16l12.34-21.59a31.86,31.86,0,0,0-.14-31.87l-11.78-20.2A31.88,31.88,0,0,0,233.17,485.54Z"/><path class="cls-1" d="M233.69,593.42,209.64,593a32,32,0,0,0-28.15,15.84L169.75,629a31.94,31.94,0,0,0-.14,31.94l12.3,21.53a32,32,0,0,0,27.17,16.08l24,.43a32,32,0,0,0,28.15-15.84L273,663a31.94,31.94,0,0,0,.14-31.94l-12.3-21.53A32,32,0,0,0,233.69,593.42Z"/><path class="cls-1" d="M233.66,700.05l-24-.44a32,32,0,0,0-28.23,15.88l-11.69,20a32,32,0,0,0-.14,32L181.9,789a32,32,0,0,0,27.21,16.13l24,.43a32,32,0,0,0,28.23-15.87l11.69-20a32,32,0,0,0,.14-32l-12.27-21.47A32,32,0,0,0,233.66,700.05Z"/><line class="cls-1" x1="282.31" y1="317.81" x2="788.47" y2="326.01"/><line class="cls-1" x1="282.31" y1="427.94" x2="788.47" y2="436.14"/><line class="cls-1" x1="282.31" y1="534.56" x2="788.47" y2="538.08"/><line class="cls-1" x1="788.47" y1="646.01" x2="282.28" y2="645.84"/><line class="cls-1" x1="282.31" y1="751.95" x2="783.79" y2="753.12"/><line class="cls-1" x1="788.47" y1="228.76" x2="282.31" y2="220.56"/><path class="cls-1" d="M765,165.49l16.28,43.95a55.06,55.06,0,0,1-.13,38.59l-4.61,12.22a55.12,55.12,0,0,0,1.24,42h0a55.08,55.08,0,0,1-1,47.12l-3.23,6.46a55,55,0,0,0-.4,48.43l3.64,7.61a55.07,55.07,0,0,1-.41,48.43l-1.83,3.67a55.06,55.06,0,0,0,1.23,51.58l.18.31A55.09,55.09,0,0,1,779.56,562l-5.8,15.57a55.07,55.07,0,0,0,.71,40.25l4.66,11.3a55,55,0,0,1-1.18,44.7l-1.63,3.44a55,55,0,0,0,0,47.36l2.74,5.77A55,55,0,0,1,781.75,771L765,806.39"/><path class="cls-2" d="M155.77,82.67v57a18.65,18.65,0,0,0,19.9,18.61c25.75-1.73,67.53-4.52,69.15-4.52,2.09,0,441.71,12.08,538,14.73a18.66,18.66,0,0,0,19.16-18l2.21-63.35A18.65,18.65,0,0,0,786,67.85L246,56.57a38,38,0,0,0-4.77.21l-68.82,7.34A18.65,18.65,0,0,0,155.77,82.67Z"/><line class="cls-1" x1="244.82" y1="51.84" x2="244.82" y2="153.77"/><path class="cls-2" d="M155.77,824.37v62A15.88,15.88,0,0,0,168.72,902c24.26,4.57,74.33,4.59,76.1,4.59,2,0,402.58.09,522.81,1.55a34.54,34.54,0,0,0,34.92-33.34l1.67-47.73A18.66,18.66,0,0,0,786,807.79L246,809.41c-1.06,0-2.13,0-3.19.07a14.54,14.54,0,0,1-3.16-.11l-65.61-.71A15.89,15.89,0,0,0,155.77,824.37Z"/><line class="cls-1" x1="244.82" y1="794.67" x2="244.82" y2="896.61"/></svg>