<svg id="图层_1" data-name="图层 1" xmlns="http://www.w3.org/2000/svg" viewBox="0 0 80 80"><path d="M39.5,72.13A25.3,25.3,0,0,1,36.94,72c-3.21-.28-13.82-2.18-16.47-17.13a27,27,0,0,1,3.32-18.36l1.13-2a249.86,249.86,0,0,0,10.7-23.19c1.7-4.64,4.35-4.64,4.92-4.64h2.27c1.71,0,3.31,0,4.17.57,1.13.76,4.26,8.52,4.92,10.13,2,5,5.77,13.91,8,18.64,4.73,10.13,9,24.52-8.61,32.94C46.22,71.38,42.91,72.13,39.5,72.13Zm.76-64c-.29,0-2,.19-3.32,3.69-1.8,4.74-5.77,13.73-10.69,23.29-.38.66-.76,1.42-1.14,2.08a25.58,25.58,0,0,0-3.22,17.41C24.36,68.54,34.1,70.34,37,70.53c4.35.28,7.57,0,13.53-2.84,16.28-7.86,12.78-20.73,8-31-2.17-4.73-6.05-13.72-8-18.74-1.23-3.12-3.79-8.9-4.36-9.46a10.15,10.15,0,0,0-3.31-.29H40.26Z"/><path d="M51.52,68.82,51,67.5a9.16,9.16,0,0,0,2.84-2.75l.1-.19c1.51-2.17,3.5-4.92,3.5-11.73A36,36,0,0,0,55.59,42C53.41,36.74,41.11,8.06,41,7.77l1.33-.56c.09.28,12.4,29.05,14.48,34.35a36.21,36.21,0,0,1,2,11.36c0,7.29-2.18,10.32-3.79,12.59l-.09.19A9.7,9.7,0,0,1,51.52,68.82Z"/><path d="M38.17,72h-.28L38,70.53a15.87,15.87,0,0,0,13.35-7.67c6.25-10,.28-23.19-.38-24.61-1.51-3.12-10.88-26.5-11.83-29.06,0-.09-.09-.19-.09-.38s-.1-.09-.1-.18a3.15,3.15,0,0,0-.66.66L37,8.44c.28-.38,1-1.52,2.08-1.33a1.68,1.68,0,0,1,1.23,1.14c0,.09,0,.19.1.19.94,2.46,10.41,25.93,11.83,29,.75,1.51,7,15.43.28,26A16.85,16.85,0,0,1,38.17,72Z"/><path d="M36.19,65.22H35.9a10.68,10.68,0,0,1-8.33-4.63,16.43,16.43,0,0,1-3.12-10.41A15.94,15.94,0,0,1,28.24,40a11.08,11.08,0,0,1,8.61-4.16,10.66,10.66,0,0,1,8.33,4.64A16.37,16.37,0,0,1,48.3,50.84C48,58.79,42.62,65.22,36.19,65.22Zm.28-28a9.35,9.35,0,0,0-7.19,3.6,15,15,0,0,0-3.41,9.37,15.64,15.64,0,0,0,2.84,9.56,9.38,9.38,0,0,0,7.19,4.07h.29c5.67,0,10.41-5.78,10.6-13h0A15.49,15.49,0,0,0,44,41.28a9.34,9.34,0,0,0-7.2-4.07Z"/><path d="M36.09,67.5h-.28c-7.57-.19-13.54-8-13.25-17.42S29,33.42,36.47,33.42h.28a12.31,12.31,0,0,1,9.56,5.3,19,19,0,0,1,3.6,12.12h0C49.72,60.11,43.57,67.5,36.09,67.5Zm.38-33c-6.91,0-12.68,6.91-12.87,15.72s5.2,16.18,12.3,16.46,13-6.81,13.25-15.71h0a18.88,18.88,0,0,0-3.4-11.54,11.35,11.35,0,0,0-8.81-4.93Z"/></svg>