<svg id="图层_1" data-name="图层 1" xmlns="http://www.w3.org/2000/svg" viewBox="0 0 960 960"><defs><style>.cls-1{fill:none;stroke:#000;stroke-miterlimit:10;stroke-width:40px;}</style></defs><path class="cls-1" d="M245.89,323.76s9.18,61.49,26,85.76c0,0,58.35-14.84,205.85-12.58s175,4,211,12.58c0,0,24.15-53.45,25.15-75.45l1.26-17.48C725.32,186.7,628.25,73.18,498.36,63S255,150,244.81,279.86a235.69,235.69,0,0,0-.18,34.34Z"/><path class="cls-1" d="M688.4,409,636.84,554.76a766.88,766.88,0,0,0-27.16,97.58c-6.54,33.57-3.4,67.68-3.77,77.61"/><path class="cls-1" d="M354,730s0-33.22-1.63-66.92S325.24,558.28,319,540.55s-46.65-133.3-46.65-133.3"/><path class="cls-1" d="M354.34,746.41h0a40.77,40.77,0,0,0,40.77,40.77H564.63a40.77,40.77,0,0,0,40.77-40.77h0"/><path class="cls-1" d="M384.38,787.18h191a0,0,0,0,1,0,0v38.07a72.43,72.43,0,0,1-72.43,72.43H456.82a72.43,72.43,0,0,1-72.43-72.43V787.18A0,0,0,0,1,384.38,787.18Z"/></svg>