<svg id="图层_1" data-name="图层 1" xmlns="http://www.w3.org/2000/svg" viewBox="0 0 80 80"><defs><style>.cls-1,.cls-2{fill:none;stroke:#040000;stroke-miterlimit:10;}.cls-1{stroke-width:1.5px;}.cls-3{fill:#040000;}</style></defs><path class="cls-1" d="M22,24.76s.73,4.89,2.07,6.82c0,0,4.64-1.18,16.37-1s13.92.32,16.78,1c0,0,1.92-4.25,2-6l.1-1.39A18.76,18.76,0,1,0,21.9,24Z"/><path class="cls-1" d="M57.19,31.54l-4.1,11.59a61,61,0,0,0-2.16,7.76c-.52,2.67-.27,7.43-.3,8.22s-.4.94-.85,1.32a4.47,4.47,0,0,0-.8,1,.41.41,0,0,0,0,.19c0,.47-.11.41-.11.41"/><path class="cls-1" d="M32.44,62.09s-.07-.44-.07-.58a3.47,3.47,0,0,0-1.15-1.28,1.43,1.43,0,0,1-.62-1.12s0-4.69-.13-7.37S28.31,43.41,27.81,42s-3.71-10.6-3.71-10.6"/><path class="cls-1" d="M48.82,62s.1,2,.09,2.29a2.4,2.4,0,0,1-.13.63s-.2.28-.52.69a.65.65,0,0,0-.09.74l.5.65a.7.7,0,0,1,0,.58s-.44.63-.59.83.06.53.06.53a3.11,3.11,0,0,1,.58.88c.12.37-.35.81-.35.81a.84.84,0,0,0-.23.86,1.06,1.06,0,0,1,0,1c-.11.3-1,.7-1.5,1a4.2,4.2,0,0,0-1.12.77c-.18.19-1.16,1.6-1.57,2.15s-1.55.6-1.55.6-1.94.07-3.22,0a2.7,2.7,0,0,1-1.77-.49S35.66,74.14,35.48,74A9.38,9.38,0,0,0,33.76,73a1.59,1.59,0,0,1-.79-.71c-.06-.14-.4-.6-.48-.82a.7.7,0,0,1,0-.41,4.4,4.4,0,0,1,.49-.68.78.78,0,0,0,.16-.52c0-.25-.24-.43-.29-.5s-.31-.45-.31-.45a.55.55,0,0,1,0-.57,8.12,8.12,0,0,0,.58-.85c.12-.25-.11-.57-.21-.7a1.89,1.89,0,0,1-.45-.73c0-.25.2-.47.53-.84s-.06-.81-.06-.81a3.6,3.6,0,0,1-.6-1,3.49,3.49,0,0,1,.14-1.3S47.12,62.39,48.82,62Z"/><path class="cls-2" d="M45.12,74.61a42.44,42.44,0,0,1-9.11,0l1.17,1.58a1.25,1.25,0,0,0,.7.58,7.39,7.39,0,0,0,2.66.23c1.5,0,2.68,0,3.18-.44a2.83,2.83,0,0,0,.52-.62c.29-.43,1-1.39,1-1.39Z"/><path class="cls-3" d="M48.71,64.73a40.6,40.6,0,0,1-15.49.59s2.29,1.16,7,1A28.23,28.23,0,0,0,48.71,64.73Z"/><path class="cls-3" d="M48.49,66.79A40.74,40.74,0,0,1,33,67.32s2.29,1.17,7,1.05A28,28,0,0,0,48.49,66.79Z"/><path class="cls-3" d="M48.21,71a40.74,40.74,0,0,1-15.49.53s2.29,1.17,7,1A28,28,0,0,0,48.21,71Z"/><path class="cls-3" d="M48.41,68.37a40.62,40.62,0,0,1-15.47,1s2.33,1.1,7,.83A28.21,28.21,0,0,0,48.41,68.37Z"/></svg>