<svg id="图层_1" data-name="图层 1" xmlns="http://www.w3.org/2000/svg" viewBox="0 0 80 80"><path d="M60.28,66.43H19.72a6.16,6.16,0,0,1-6.15-6.15V19.72a6.16,6.16,0,0,1,6.15-6.15H60.28a6.16,6.16,0,0,1,6.15,6.15V60.28A6.16,6.16,0,0,1,60.28,66.43ZM19.72,15.64a4.08,4.08,0,0,0-4.08,4.08V60.28a4.08,4.08,0,0,0,4.08,4.08H60.28a4.08,4.08,0,0,0,4.08-4.08V19.72a4.08,4.08,0,0,0-4.08-4.08Z"/><path d="M61.32,69H18.68A7.7,7.7,0,0,1,11,61.32V18.68A7.7,7.7,0,0,1,18.68,11H61.32A7.7,7.7,0,0,1,69,18.68V61.32A7.7,7.7,0,0,1,61.32,69ZM18.68,12A6.67,6.67,0,0,0,12,18.68V61.32A6.67,6.67,0,0,0,18.68,68H61.32A6.67,6.67,0,0,0,68,61.32V18.68A6.67,6.67,0,0,0,61.32,12Z"/><path d="M44.15,47.28h-8.3a2.07,2.07,0,0,1-2.07-2.07v-8.3a2.07,2.07,0,0,1,2.07-2.07h8.3a2.07,2.07,0,0,1,2.07,2.07v8.3A2.07,2.07,0,0,1,44.15,47.28Zm-8.3-11.4a1,1,0,0,0-1,1v8.3a1,1,0,0,0,1,1h8.3a1,1,0,0,0,1-1v-8.3a1,1,0,0,0-1-1Z"/><path d="M29.6,48.42l-.73-.74,2-2L29.08,43.9a.85.85,0,0,1,0-1.2L30.83,41,29.2,39.32a.85.85,0,0,1,0-1.2l1.74-1.73-2-2,.73-.73,2.08,2.08a.85.85,0,0,1,0,1.2l-1.74,1.73,1.63,1.63a.85.85,0,0,1,0,1.2L29.94,43.3l1.79,1.79a.85.85,0,0,1,0,1.2Z"/><path d="M50.4,48.42l-2.13-2.13a.85.85,0,0,1,0-1.2l1.79-1.79-1.75-1.75a.85.85,0,0,1,0-1.2l1.63-1.63L48.2,37a.85.85,0,0,1,0-1.2l2.08-2.08.73.73-1.95,2,1.74,1.73a.85.85,0,0,1,0,1.2L49.17,41l1.75,1.75a.85.85,0,0,1,0,1.2l-1.78,1.79,2,2Z"/></svg>