<svg id="图层_1" data-name="图层 1" xmlns="http://www.w3.org/2000/svg" viewBox="0 0 960 960"><defs><style>.cls-1,.cls-2{fill:none;stroke:#000;stroke-miterlimit:10;}.cls-1{stroke-width:20px;}.cls-2{stroke-width:40px;}</style></defs><rect class="cls-1" x="102" y="102" width="756" height="756" rx="83" transform="translate(960 0) rotate(90)"/><rect class="cls-2" x="152" y="152" width="656" height="656" rx="33" transform="translate(960 0) rotate(90)"/><path d="M528,551.84H432A23.9,23.9,0,0,1,408.17,528V432A23.9,23.9,0,0,1,432,408.16H528A23.9,23.9,0,0,1,551.83,432V528A23.9,23.9,0,0,1,528,551.84ZM432,420.1A11.94,11.94,0,0,0,420.12,432V528A11.94,11.94,0,0,0,432,539.9H528A11.94,11.94,0,0,0,539.88,528V432A11.94,11.94,0,0,0,528,420.1Z"/><path d="M359.88,564.94l-8.45-8.45,23.05-23-20.62-20.63a9.84,9.84,0,0,1,0-13.87l20.2-20.2-18.8-18.81a9.81,9.81,0,0,1,0-13.87L375.32,426l-22.49-22.48,8.45-8.45,24,24a9.81,9.81,0,0,1,0,13.86L365.22,453,384,471.81a9.83,9.83,0,0,1,0,13.87l-20.2,20.2,20.62,20.63a9.81,9.81,0,0,1,0,13.86Z"/><path d="M600.12,564.94l-24.57-24.57a9.84,9.84,0,0,1,0-13.85l20.65-20.64L576,485.68a9.85,9.85,0,0,1,0-13.86L594.78,453l-20.07-20.07a9.84,9.84,0,0,1,0-13.85l24-24,8.44,8.45L584.67,426l20.07,20.08a9.83,9.83,0,0,1,0,13.87l-18.81,18.81L606.14,499a9.85,9.85,0,0,1,0,13.86l-20.65,20.64,23,23Z"/></svg>