<svg id="图层_1" data-name="图层 1" xmlns="http://www.w3.org/2000/svg" viewBox="0 0 960 960"><defs><style>.cls-1,.cls-2{fill:none;stroke:#000;stroke-miterlimit:10;}.cls-1{stroke-width:40px;}.cls-2{stroke-width:20px;}</style></defs><path class="cls-1" d="M519.61,30.88,377.11,39.6A44.33,44.33,0,0,0,335.5,83.84V882.23a38,38,0,0,0,32.59,37.58l56.06,8a17.21,17.21,0,0,0,4.7,0l155.36-20.4a46.32,46.32,0,0,0,40.29-45.92V95.4a46.62,46.62,0,0,0-31.44-44.07L542.76,34A59.86,59.86,0,0,0,519.61,30.88Z"/><path class="cls-2" d="M620.5,76.15,447.11,86.6a44.33,44.33,0,0,0-41.61,44.24V929.23"/><ellipse class="cls-2" cx="513.5" cy="287.15" rx="68" ry="85"/></svg>