<svg id="图层_1" data-name="图层 1" xmlns="http://www.w3.org/2000/svg" viewBox="0 0 80 80"><path d="M42.36,73h-.3l-10.7-1.4a2.44,2.44,0,0,1-2.1-2.3V11.88a2.5,2.5,0,0,1,.8-1.8,2.56,2.56,0,0,1,1.9-.6l10.7,1.4a2.44,2.44,0,0,1,2.1,2.3v57.4a2.5,2.5,0,0,1-.8,1.8A2.45,2.45,0,0,1,42.36,73Zm-10.7-62.2a.91.91,0,0,0-.7.3,1.23,1.23,0,0,0-.4.8v57.4a1.09,1.09,0,0,0,1,1.1l10.7,1.4a1.61,1.61,0,0,0,.9-.3,1.23,1.23,0,0,0,.4-.8V13.28a1.09,1.09,0,0,0-1-1.1l-10.7-1.4Z"/><path d="M43.16,72.88l-.3-1.2,5.9-1.4a1.62,1.62,0,0,0,1.2-1.6V10.78a1.62,1.62,0,0,0-1.4-1.6L39.36,8a2.2,2.2,0,0,0-.8.1L31.06,11l-.4-1.2,7.5-2.9a3.18,3.18,0,0,1,1.4-.2l9.2,1.2a2.89,2.89,0,0,1,2.5,2.8v57.8a2.88,2.88,0,0,1-2.2,2.8Z"/><path d="M36.86,31.38c-3.2,0-5.7-3.1-5.7-6.9s2.6-6.9,5.7-6.9,5.7,3.1,5.7,6.9S40.06,31.38,36.86,31.38Zm0-12.6c-2.5,0-4.5,2.5-4.5,5.7s2,5.7,4.5,5.7,4.5-2.5,4.5-5.7S39.36,18.78,36.86,18.78Z"/><path d="M50.26,68.18h-.2a2.22,2.22,0,0,1-2.2-2.2c0-.5-.4-47.8-.4-50.5-1.3-1.1-.9-4-.8-4.1a1.28,1.28,0,0,0-1.1-1.2l-10.1-1.3.1-.4,10.1,1.3a1.65,1.65,0,0,1,1.4,1.7c0,.1-.4,2.9.8,3.8l.1.1v.1c0,1.1.4,50.1.4,50.6a1.79,1.79,0,0,0,1.8,1.8h.2v.3Z"/></svg>