<svg id="图层_1" data-name="图层 1" xmlns="http://www.w3.org/2000/svg" viewBox="0 0 80 80"><path d="M20.71,66.27h-.38l-5-1.11a1.8,1.8,0,0,1-1.4-1.77V14.53a2,2,0,0,1,.66-1.39,1.82,1.82,0,0,1,1.48-.37l5,1.11a1.8,1.8,0,0,1,1.39,1.77V64.51a2,2,0,0,1-.65,1.39A1.47,1.47,0,0,1,20.71,66.27Zm-5-52.2c-.09,0-.19.09-.28.09a.49.49,0,0,0-.18.37V63.39a.62.62,0,0,0,.37.47l5,1.11c.19,0,.28,0,.37-.09a.47.47,0,0,0,.19-.37V15.65c0-.19-.19-.37-.37-.47l-5-1.11Z"/><path d="M21.45,66.27l-.65-1.2,5.11-2.79V14.07a.9.9,0,0,0-.75-.93L20.43,12l-5,2.14L14.85,13l4.93-2.13a1.58,1.58,0,0,1,.93-.1l4.73,1.12a2.28,2.28,0,0,1,1.77,2.23v49Z"/><rect x="21.53" y="13.33" width="4.92" height="1.39" transform="translate(-3.53 10.18) rotate(-22.36)"/><path d="M19.78,51.6h0a.64.64,0,0,1-.65-.65V30.79a.64.64,0,0,1,.65-.65h0a.64.64,0,0,1,.65.65V51A.64.64,0,0,1,19.78,51.6Z"/><path d="M32.69,54h0a.64.64,0,0,1-.65-.65V33.2a.64.64,0,0,1,.65-.65h0a.64.64,0,0,1,.65.65V53.36A.7.7,0,0,1,32.69,54Z"/><path d="M53.77,71.94a3.92,3.92,0,0,1-1-.09L33.9,68.69A6,6,0,0,1,29,63l-.46-15c-.19-6.88-.09-13.84.18-20.72L29.07,19a6.6,6.6,0,0,1,4.45-6.31L38,11.1a1.83,1.83,0,0,1,1-.1l21.73,2.88a4.79,4.79,0,0,1,2.88,1.67c.28.28,4.65,6.79,4.37,27-.37,21.27-4.37,24.33-4.83,24.61l-6,3.81A6.29,6.29,0,0,1,53.77,71.94Zm-15-59.08-4.55,1.58a5,5,0,0,0-3.26,4.64h0l-.37,8.36c-.28,6.88-.37,13.75-.18,20.63l.46,15a4.08,4.08,0,0,0,3.44,3.9l18.85,3.16a3.89,3.89,0,0,0,3.07-.65l6-3.81s3.62-3.16,4-23.13c.28-19.41-3.9-25.82-3.9-25.82a2.57,2.57,0,0,0-1.67-.93Z"/><path d="M54.89,71.38l-1.67-.65a87.38,87.38,0,0,0,4.27-24.15c.56-11.52-2.14-21.55-3.9-25.17a2.09,2.09,0,0,0-1.67-1.21L30.65,17l.27-1.76L52.2,18.43a4,4,0,0,1,3,2.14c1.95,3.81,4.74,14.21,4.18,26.1C58.61,61.44,55.08,71,54.89,71.38Z"/><rect x="52.77" y="16.77" width="9.85" height="1.86" transform="translate(-1.89 27.28) rotate(-26.19)"/></svg>