<svg id="图层_1" data-name="图层 1" xmlns="http://www.w3.org/2000/svg" viewBox="0 0 960 960"><defs><style>.cls-1,.cls-2,.cls-3{fill:none;stroke:#000;stroke-miterlimit:10;}.cls-1{stroke-width:40px;}.cls-2,.cls-3{stroke-width:20px;}.cls-3{stroke-linecap:round;}</style></defs><rect class="cls-1" x="71.41" y="59.5" width="192" height="841" rx="44.59"/><path class="cls-1" d="M784.85,900.5H424.5a71.09,71.09,0,0,1-71.09-71.09V130.59A71.09,71.09,0,0,1,424.5,59.5H784.85a42.41,42.41,0,0,1,40.62,30.23L837,128.33a1225,1225,0,0,1,0,703.34l-11.56,38.6A42.41,42.41,0,0,1,784.85,900.5Z"/><rect class="cls-2" x="134.41" y="59.5" width="129" height="841" rx="61.43"/><path class="cls-2" d="M515.84,900.5a61.43,61.43,0,0,1-61.43-61.43V120.93A61.43,61.43,0,0,1,515.84,59.5"/><line class="cls-3" x1="551.41" y1="321" x2="551.41" y2="612"/><line class="cls-3" x1="211.41" y1="321.5" x2="211.41" y2="612.5"/></svg>