<?xml version="1.0" encoding="utf-8"?>
<!-- Generator: Adobe Illustrator 24.1.0, SVG Export Plug-In . SVG Version: 6.00 Build 0)  -->
<svg version="1.1" id="图层_1" xmlns="http://www.w3.org/2000/svg" xmlns:xlink="http://www.w3.org/1999/xlink" x="0px" y="0px"
	 viewBox="0 0 80 80" style="enable-background:new 0 0 80 80;" xml:space="preserve">
<style type="text/css">
	.st0{fill:#040000;}
</style>
<path d="M60.3,66.4H19.7c-3.4,0-6.1-2.8-6.1-6.2V19.7c0-3.4,2.8-6.1,6.1-6.1h40.6c3.4,0,6.1,2.8,6.2,6.1v40.6
	C66.4,63.7,63.7,66.4,60.3,66.4z M19.7,15.6c-2.3,0-4.1,1.8-4.1,4.1l0,0v40.6c0,2.3,1.8,4.1,4.1,4.1l0,0h40.6c2.3,0,4.1-1.8,4.1-4.1
	l0,0V19.7c0-2.3-1.8-4.1-4.1-4.1l0,0H19.7z"/>
<path d="M61.3,69H18.7c-4.2,0-7.7-3.4-7.7-7.7V18.7c0-4.2,3.4-7.7,7.7-7.7h42.6c4.2,0,7.7,3.4,7.7,7.7v42.6C69,65.6,65.6,69,61.3,69
	z M18.7,12C15,12,12,15,12,18.7l0,0v42.6c0,3.7,3,6.7,6.7,6.7l0,0h42.6c3.7,0,6.7-3,6.7-6.7l0,0V18.7c0-3.7-3-6.7-6.7-6.7l0,0
	C61.3,12,18.7,12,18.7,12z"/>
<g>
	<path class="st0" d="M41.2,43.7V30.8c0-2-1.6-3.7-3.7-3.7s-3.7,1.6-3.7,3.7v12.9c-2.4,2-2.6,5.6-0.6,7.9c2,2.4,5.6,2.6,7.9,0.6
		s2.6-5.6,0.6-7.9C41.6,44,41.4,43.8,41.2,43.7z M37.5,52.6c-2.6,0-4.7-2-4.7-4.6c0-1.5,0.7-2.8,1.8-3.7c0.1-0.1,0.2-0.2,0.2-0.4
		V30.8c0-1.5,1.2-2.7,2.7-2.7s2.7,1.2,2.7,2.7V33h-0.5c-0.3,0-0.5,0.2-0.5,0.5s0.2,0.5,0.5,0.5h0.5v1.5h-0.5c-0.3,0-0.5,0.2-0.5,0.5
		s0.2,0.5,0.5,0.5h0.5V38h-0.5c-0.3,0-0.5,0.2-0.5,0.5s0.2,0.5,0.5,0.5h0.5v1.5h-0.5c-0.3,0-0.5,0.2-0.5,0.5s0.2,0.5,0.5,0.5h0.5
		v2.6c0,0.1,0.1,0.3,0.2,0.4c2,1.6,2.4,4.5,0.8,6.5C40.3,51.9,39,52.6,37.5,52.6z"/>
	<path class="st0" d="M38.7,45V30.8c0-0.7-0.5-1.2-1.2-1.2s-1.2,0.5-1.2,1.2V45c-1.6,0.7-2.4,2.5-1.7,4.2s2.5,2.4,4.2,1.7
		s2.4-2.5,1.7-4.2C40.1,45.9,39.5,45.3,38.7,45z"/>
	<path class="st0" d="M46.5,31.3c-0.1,0-0.1,0-0.2,0.1c-0.1,0.1-1.5,1.5-1.5,2.7c0,0.9,0.6,1.7,1.6,1.7c0.9,0,1.7-0.6,1.7-1.6
		c0-0.1,0-0.1,0-0.2C48.1,32.8,46.7,31.4,46.5,31.3C46.6,31.3,46.6,31.3,46.5,31.3z M46.5,35.2c-0.6,0-1.2-0.5-1.2-1.2l0,0
		c0-0.8,0.8-1.8,1.2-2.2c0.4,0.5,1.1,1.4,1.1,2.2C47.6,34.7,47.1,35.2,46.5,35.2z"/>
	<path class="st0" d="M50.4,36.7c-0.1,0-0.1,0-0.2,0.1c-0.1,0.1-1.5,1.5-1.5,2.7c0,0.9,0.6,1.7,1.6,1.7c0.9,0,1.7-0.6,1.7-1.6
		c0-0.1,0-0.1,0-0.2C52,38.2,50.6,36.8,50.4,36.7C50.5,36.7,50.5,36.7,50.4,36.7z M50.4,40.6c-0.6,0-1.2-0.5-1.2-1.2l0,0
		c0-0.8,0.8-1.8,1.2-2.2c0.4,0.5,1.1,1.4,1.1,2.2C51.6,40.1,51,40.6,50.4,40.6z"/>
	<path class="st0" d="M45.6,39.2c-0.1-0.1-0.2-0.1-0.3,0l0,0c-0.1,0.1-1.4,1.5-1.4,2.7c0,0.9,0.7,1.6,1.6,1.6h0.1
		c0.9,0,1.6-0.8,1.6-1.7l0,0C47.1,40.6,45.7,39.3,45.6,39.2z M45.6,43L45.6,43c-0.7,0-1.2-0.5-1.2-1.1c0-0.8,0.8-1.8,1.1-2.2
		c0.4,0.5,1.2,1.4,1.2,2.1C46.7,42.5,46.2,43,45.6,43z"/>
</g>
</svg>
