<svg id="图层_1" data-name="图层 1" xmlns="http://www.w3.org/2000/svg" viewBox="0 0 960 960"><defs><style>.cls-1,.cls-2{fill:none;stroke:#000;stroke-miterlimit:10;}.cls-1{stroke-width:20px;}.cls-2{stroke-width:40px;}</style></defs><rect class="cls-1" x="102" y="102" width="756" height="756" rx="83" transform="translate(960 0) rotate(90)"/><rect class="cls-2" x="152" y="152" width="656" height="656" rx="33" transform="translate(960 0) rotate(90)"/><path d="M484.85,518.93V369.7a42.58,42.58,0,0,0-85.15,0V518.93a65.28,65.28,0,1,0,92.06,6.91A66.29,66.29,0,0,0,484.85,518.93ZM442.28,622.29A53.86,53.86,0,0,1,408.9,525.8a5.7,5.7,0,0,0,2.16-4.43V369.7a31.22,31.22,0,0,1,62.44,0v25.54h-5.68a5.68,5.68,0,0,0,0,11.36h5.68v17h-5.68a5.68,5.68,0,1,0,0,11.35h5.68v17h-5.68a5.68,5.68,0,1,0,0,11.35h5.68v17h-5.68a5.68,5.68,0,1,0,0,11.35h5.68V521.6a5.68,5.68,0,0,0,2.15,4.43,53.86,53.86,0,0,1-33.37,96.26Z"/><path d="M456.47,534.31V369.7a14.19,14.19,0,0,0-28.38,0V534.31a36.88,36.88,0,1,0,28.38,0Z"/><path d="M546.49,375.38a2.79,2.79,0,0,0-2,.85c-.69.68-17,17-17,31.22a19.07,19.07,0,1,0,38.08,2.08,18,18,0,0,0,0-2.08c0-14-16.34-30.48-17-31.22A2.83,2.83,0,0,0,546.49,375.38Zm0,45.41a13.39,13.39,0,0,1-13.39-13.4h0c0-9.08,9.25-20.38,13.39-25,5,5.68,13.34,16.63,13.34,25A13.39,13.39,0,0,1,546.49,420.79Z"/><path d="M591.9,437.82a2.79,2.79,0,0,0-2,.85c-.69.68-17,17-17,31.22A19.07,19.07,0,1,0,611,472a18,18,0,0,0,0-2.08c0-14-16.34-30.48-17-31.22A2.83,2.83,0,0,0,591.9,437.82Zm0,45.41a13.39,13.39,0,0,1-13.39-13.4h0c0-9.08,9.25-20.38,13.39-25,5,5.67,13.34,16.63,13.34,25A13.39,13.39,0,0,1,591.9,483.23Z"/><path d="M536.56,467a2.84,2.84,0,0,0-4,0h0c-.68.74-16.63,17.6-16.29,31.62a19.07,19.07,0,0,0,19,18.62h.68a19.08,19.08,0,0,0,18.62-19.52h0C554,483.79,537.24,467.67,536.56,467Zm-1,44.62h-.34a13.39,13.39,0,0,1-13.39-13.06c0-9.08,8.74-20.6,12.77-25.37,5.16,5.68,13.73,16.35,14,24.69A13.4,13.4,0,0,1,535.59,511.61Z"/></svg>