<?xml version="1.0" encoding="utf-8"?>
<!-- Generator: Adobe Illustrator 24.1.0, SVG Export Plug-In . SVG Version: 6.00 Build 0)  -->
<svg version="1.1" id="图层_1" xmlns="http://www.w3.org/2000/svg" xmlns:xlink="http://www.w3.org/1999/xlink" x="0px" y="0px"
	 viewBox="0 0 80 80" style="enable-background:new 0 0 80 80;" xml:space="preserve">
<g>
	<path d="M67.5,13.1c-1.1-0.8-2.2-1.4-3.5-1.7L42,5.7c-1.8-0.5-3.7-0.5-5.6-0.1L23.6,8.7l0,0C22.4,9,21.3,9.4,20.2,10l-3.4-0.9
		c-0.2,0-0.4,0-0.5,0l-2.5,0.7c-0.2,0-0.3,0.1-0.4,0.2c-0.2,0.2-0.4,0.4-0.4,0.7l0.2,5.9c-1.6,2.6-2.5,5.7-2.5,9v10.1l-2.4,0.5l0,0
		c-0.5,0.2-0.8,0.6-0.8,1.1v2.9c0,0.6,0.4,1,0.9,1.1l2.3,0.5v11.8c0,2.9,1,5.4,3.1,7.5c1.8,1.8,4.3,3.2,7.5,4.2L39,72
		c1.2,0.5,2.5,0.8,3.8,0.8c1.1,0,2.2-0.2,3.2-0.6L57.4,68c4-1.5,7.5-4.2,9.9-7.8c2.5-3.5,3.7-7.7,3.7-12V20.3
		C71.1,17.5,69.8,14.8,67.5,13.1z M14.4,11.4l2.5,0.7c-0.9,0.7-1.7,1.5-2.4,2.4L14.4,11.4z M8.9,39.9v-2.1l1.8,0.4v2L8.9,39.9z
		 M22.1,62.8c-6-1.9-8.9-4.9-8.9-9.2V25.5c0-6.7,4.5-12.5,10.9-14.3l12.9-3.1c1.4-0.3,2.9-0.3,4.3,0l15.4,4l-10.1,2.7
		c-7.6,2-12.9,8.9-12.9,16.8v32.1c0,1.3,0.3,2.5,0.8,3.7L22.1,62.8L22.1,62.8z M68.4,48.2c0,7.6-4.8,14.6-12,17.3l-11.4,4.3
		c-1.5,0.6-3,0.6-4.5,0l0,0L40,69.6c-0.3-0.1-0.6-0.3-0.8-0.5c-1.8-1.2-2.8-3.1-2.8-5.3V31.7c0-6.7,4.5-12.5,10.9-14.3L60.2,14
		c0.6-0.2,1.1-0.2,1.7-0.2c0.5,0,1,0.1,1.5,0.2l0.2,0c0.8,0.2,1.6,0.6,2.3,1.1c1.6,1.2,2.6,3.1,2.6,5.2V48.2z"/>
	<path d="M55.3,25.5c-0.3-0.2-0.7-0.3-1.1-0.2l-3.3,1.1c-0.5,0.2-0.8,0.6-0.8,1.1v8.8c0,0.4,0.2,0.7,0.5,1c0.2,0.1,0.5,0.2,0.7,0.2
		c0.1,0,0.3,0,0.4-0.1l3.3-1.1c0.5-0.2,0.8-0.6,0.8-1.1v-8.8C55.8,26.1,55.6,25.7,55.3,25.5z M54.6,35.3l-3.2,1.1v-8.8l3.2-1.1V35.3
		z"/>
	<path d="M47.2,52.2c-0.4-0.3-0.9-0.4-1.3-0.2l-4,1.2c-0.6,0.2-1.1,0.8-1.1,1.4v2.6c0,0.5,0.2,0.9,0.6,1.2c0.3,0.2,0.6,0.3,0.9,0.3
		c0.1,0,0.3,0,0.4-0.1l4-1.2c0.6-0.2,1.1-0.8,1.1-1.4v-2.6C47.8,52.9,47.6,52.5,47.2,52.2z M46.6,56c0,0.1-0.1,0.2-0.2,0.3l-4,1.2
		c-0.1,0-0.2,0-0.2,0c0,0-0.1-0.1-0.1-0.2v-2.6c0-0.1,0.1-0.2,0.2-0.3l4-1.2c0,0,0.1,0,0.1,0c0.1,0,0.1,0,0.2,0.1
		c0,0,0.1,0.1,0.1,0.2V56z"/>
	<path d="M63.4,47.2C63,46.9,62.5,46.8,62,47l-4,1.2C57.4,48.4,57,49,57,49.6v2.6c0,0.5,0.2,0.9,0.6,1.2c0.3,0.2,0.6,0.3,0.9,0.3
		c0.1,0,0.3,0,0.4-0.1l4-1.2c0.6-0.2,1.1-0.8,1.1-1.4v-2.6C64,47.9,63.7,47.5,63.4,47.2z M62.7,51c0,0.1-0.1,0.2-0.2,0.3l-4,1.2
		c-0.1,0-0.2,0-0.2,0c0,0-0.1-0.1-0.1-0.2v-2.6c0-0.1,0.1-0.2,0.2-0.3l4-1.2c0,0,0.1,0,0.1,0c0.1,0,0.1,0,0.2,0.1
		c0,0,0.1,0.1,0.1,0.2V51z"/>
	<path d="M22.7,37c-0.8-0.1-1.7,0.1-2.3,0.7c-0.7,0.6-1,1.4-1,2.2V47c0,2,1.4,3.6,3.3,3.9c0.2,0,0.3,0,0.5,0c0.7,0,1.3-0.2,1.9-0.7
		c0.6-0.5,1-1.3,1-2.2v-7.2C26,38.9,24.6,37.3,22.7,37z M24.8,48.1c0,0.5-0.2,0.9-0.6,1.3c-0.4,0.3-0.9,0.4-1.3,0.4
		c-1.3-0.2-2.3-1.3-2.3-2.7v-7.2c0-0.5,0.2-1,0.6-1.3c0.4-0.3,0.9-0.5,1.4-0.4c1.3,0.2,2.3,1.3,2.3,2.6V48.1z"/>
</g>
</svg>
