<svg id="图层_1" data-name="图层 1" xmlns="http://www.w3.org/2000/svg" viewBox="0 0 80 80"><path d="M60.28,66.43H19.72a6.16,6.16,0,0,1-6.15-6.15V19.72a6.16,6.16,0,0,1,6.15-6.15H60.28a6.16,6.16,0,0,1,6.15,6.15V60.28A6.16,6.16,0,0,1,60.28,66.43ZM19.72,15.64a4.08,4.08,0,0,0-4.08,4.08V60.28a4.08,4.08,0,0,0,4.08,4.08H60.28a4.08,4.08,0,0,0,4.08-4.08V19.72a4.08,4.08,0,0,0-4.08-4.08Z"/><path d="M61.32,69H18.68A7.7,7.7,0,0,1,11,61.32V18.68A7.7,7.7,0,0,1,18.68,11H61.32A7.7,7.7,0,0,1,69,18.68V61.32A7.7,7.7,0,0,1,61.32,69ZM18.68,12A6.67,6.67,0,0,0,12,18.68V61.32A6.67,6.67,0,0,0,18.68,68H61.32A6.67,6.67,0,0,0,68,61.32V18.68A6.67,6.67,0,0,0,61.32,12Z"/><path d="M45.49,32.18a.27.27,0,0,0-.25.29.26.26,0,0,0,.29.24A2.46,2.46,0,0,1,48.19,35a.27.27,0,0,0,.29.24.31.31,0,0,0,.2-.11.36.36,0,0,0,0-.19A3,3,0,0,0,45.49,32.18Z"/><path d="M45.36,30.78a.27.27,0,0,0,0,.54,3.86,3.86,0,0,1,4.18,3.5.26.26,0,0,0,.29.24.3.3,0,0,0,.19-.1.25.25,0,0,0,0-.19A4.39,4.39,0,0,0,45.36,30.78Z"/><circle cx="46.12" cy="34.71" r="0.72"/><path d="M30,47.14a.5.5,0,0,1-.5-.5V34.35a2.75,2.75,0,0,1,2.41-2.73l9.47-1.15a.5.5,0,1,1,.13,1L32,32.62a1.74,1.74,0,0,0-1.53,1.73V46.64A.5.5,0,0,1,30,47.14Z"/><path d="M44.25,55.1a.5.5,0,0,1-.5-.5V43.15A3.89,3.89,0,0,1,47,39.31l8-1.48a.49.49,0,0,1,.58.4.5.5,0,0,1-.4.58l-8,1.48a2.91,2.91,0,0,0-2.38,2.86V54.6A.5.5,0,0,1,44.25,55.1Z"/><path d="M30,34.51c0-.15,2.27-2.46,2.27-2.46l13.55,8-1.57,2.37Z"/><path d="M33.34,32.05C33.67,32.2,47,39.8,47,39.8l3.25-.61L36.74,31.54Z"/><polygon points="30.19 35.38 44.08 43.33 44.08 46.51 30 38.47 30.19 35.38"/><polygon points="30.19 39.47 44.08 47.41 44.08 50.59 30 42.55 30.19 39.47"/></svg>