<svg id="图层_1" data-name="图层 1" xmlns="http://www.w3.org/2000/svg" viewBox="0 0 960 960"><defs><style>.cls-1,.cls-2{fill:none;stroke:#000;stroke-miterlimit:10;}.cls-1{stroke-width:20px;}.cls-2{stroke-width:40px;}</style></defs><path d="M517.33,383a2.45,2.45,0,1,0,.42,4.89,22.44,22.44,0,0,1,24.31,20.42,2.44,2.44,0,0,0,2.65,2.24,2.63,2.63,0,0,0,1.79-1,2.48,2.48,0,0,0,.49-1.72A27.44,27.44,0,0,0,517.33,383Z"/><path d="M516.15,370.22a2.46,2.46,0,0,0,.42,4.9,35.28,35.28,0,0,1,38.16,32,2.44,2.44,0,0,0,2.65,2.24,2.61,2.61,0,0,0,1.79-1,2.48,2.48,0,0,0,.49-1.72A40.18,40.18,0,0,0,516.15,370.22Z"/><circle cx="523.09" cy="406.15" r="6.6"/><path d="M375.65,519.84a4.58,4.58,0,0,1-4.58-4.58V402.81a25.12,25.12,0,0,1,22.05-24.9l86.68-10.57a4.57,4.57,0,0,1,1.11,9.08L394.23,387a16,16,0,0,0-14,15.82V515.26A4.58,4.58,0,0,1,375.65,519.84Z"/><path d="M506,592.71a4.57,4.57,0,0,1-4.57-4.57V483.33a35.76,35.76,0,0,1,29.22-35.15l72.86-13.52a4.57,4.57,0,0,1,1.66,9l-72.86,13.52a26.61,26.61,0,0,0-21.74,26.16V588.14A4.57,4.57,0,0,1,506,592.71Z"/><path d="M375.65,404.29c0-1.33,20.81-22.5,20.81-22.5L520.37,455,506,476.65Z"/><path d="M406.24,381.79c2.94,1.39,125.26,70.89,125.26,70.89l29.79-5.53-124-70Z"/><polygon points="377.41 412.3 504.49 484.96 504.49 514.08 375.64 440.54 377.41 412.3"/><polygon points="377.41 449.66 504.49 522.32 504.49 551.44 375.64 477.9 377.41 449.66"/><rect class="cls-1" x="102" y="102" width="756" height="756" rx="83" transform="translate(960 0) rotate(90)"/><rect class="cls-2" x="152" y="152" width="656" height="656" rx="33" transform="translate(960 0) rotate(90)"/></svg>