<svg id="图层_1" data-name="图层 1" xmlns="http://www.w3.org/2000/svg" viewBox="0 0 80 80"><defs><style>.cls-1{fill:none;stroke:#000;stroke-linecap:round;stroke-linejoin:round;stroke-width:0.71px;}</style></defs><path class="cls-1" d="M36.43,3.63h0m-.46.3.13-.14.05,0M46,3.67l.17.09.13.14m1.27,27.38H47M45.72,4l.05,0,.1,0,.18,0,.26.07M36,3.94l.13-.14.16-.08m-.27.4.4-.09.31,0,.23,0,.15.09M36,31.34l0,0H35M45.7,3.92l-.12-.15-.16-.08m-8.29.25.08-.14.13-.08m-1.1,0,.14-.08h0m.91.09-.16-.06-.22,0h-.32l-.4.08m3,0-.4-.06-.48,0-.51,0-.56.06m8.08,0-.48-.06-.43,0-.36,0-.3.07m2.15,0-.28,0-.18,0-.1,0,0,.07m.55,0h0m-1.89.43L44.38,4l.36,0h.43l.5.09M46.6,31.3H45.2M41.65,3.72l-.57-.08H39.89l-.6.08m-.1.22,0-.14.06-.08m4.75.2L44,3.79l-.1-.09m0,0-.59-.06-.57,0-.54,0-.5.08m0,.21,0-.13V3.72m-4.48.4L37.74,4l.52,0,.46,0,.38.09m-.7,27.2H36.93l-.27,0M41.78,4.1,42.26,4l.55,0,.55,0,.6.08m.43,27.21h-2M39.27,4.12,39.86,4l.59,0L41,4l.56.07m-.16,27.22h-2.1m-4.66,1H44.84l.5,0h2.3M46.31,4.07V3.9m0,.17.33,7,.93,20.17m0,0h-.42l-.1,0m0,0-.22-4.77-.92-19-.17-3.39m0-.17,0,.05,0,.07v0m-.07,0V3.94l0,0m0,.17.24,7L46.6,31.3m0,0H45.2m0,0L45,26.55,44.24,7.49,44.11,4.1M44,3.92l0,.07,0,.07v0M44,4.1,44,4l0-.08,0,0M44,4.1l.12,7,.31,20.17m0,0h-2m0,0-.12-4.76-.44-19L41.78,4.1m-.1-.17,0,.07,0,.07,0,0m-.19,0V4l0-.07,0,0m-.09.17,0,7-.13,20.18m0,0h-2.1m0,0,0-4.76,0-19V4.12m-.08-.18,0,.06,0,.07v0m-.17,0,0-.08,0-.07,0,0m-.09.18-.17,7L38.4,31.32m0,0h-.7l-.22,0h-.82m0,0,.08-4.77.36-19,.07-3.4m0-.18,0,.06v.12m-.11,0V4l0-.07,0,0m-.07.18-.28,7L36,31.34m0,0h-.16l-.14,0H35m0,0,.16-4.76.67-19L36,4.12m0-.18L36,4v.12m0,0V3.94m0,.18-.3,7-.85,20.17m0,0h0M36,3.93V4.1m9.38,32.32,0,.07,0,.07,0,.06,0,.05-.06,0-.06,0h-.14m-7.48,0h-.07l-.08,0-.07,0-.05,0-.06,0,0-.06,0-.07,0-.07m.42.34h4.83l1.06,0h1.59M36.54,33.1,37,36.45m0,0h4.15l.8,0h3.35m0,0,.46-3.37m0,0h-.12l-.33,0H39.49l-.77,0H36.54m9.23-.05h0V33l0,0h0m-9.33,0,0,0v0h0l0,0v.06m-1.76-.16h11l.4,0h1.3M39.22,72.84l0-.26m0,.31v0m0,0,.3,2m0,0,1.32,2m0,0v0m.11.09-.11-.07m.24.13L41,76.93m.26.07h-.13m.27,0h-.14m.27-.07-.13.06m.24-.15-.11.09m.11-.09h0m0,0h0m0,0,1.32-2m0,0,.34-2m0,0h0m0-.19,0,.19m0-.42,0,.23m0-.23h0m0,0V36.77m-4,0v35.6m0,0h0m0,.19,0-.19M36.31,3.67l0,0-.14.07m.17-.07h0l-.12.07m.3-.14-.12,0M46,3.7l-.12,0m0,0-1-.26-1.06-.2-1-.14L41.73,3H40.66l-1.07.06-1.08.13-1,.18-1.05.26M34.7,31.32l0,1m13,0L46.3,3.9M37,36.45l.06.1.07.08.16.09.14,0h.23l.13,0h2.53l.74,0h3.41l.24,0,.22,0,.2-.1.07-.08,0-.1m0,0,.23-1.68.23-1.69m-9.17.05.23,1.67L37,36.45m8.68-3.4,0-.07,0,0v0m-9.2.06v.13m-1.79-.76v.6m12.73,0v-.6"/></svg>