<svg id="图层_1" data-name="图层 1" xmlns="http://www.w3.org/2000/svg" viewBox="0 0 960 960"><defs><style>.cls-1,.cls-11,.cls-12,.cls-13,.cls-14,.cls-15,.cls-2,.cls-3,.cls-4,.cls-5,.cls-7,.cls-9{fill:none;}.cls-1,.cls-2,.cls-3{stroke:#000;}.cls-1,.cls-11,.cls-12,.cls-13,.cls-14,.cls-15,.cls-2,.cls-3,.cls-4,.cls-5,.cls-7,.cls-8,.cls-9{stroke-miterlimit:10;}.cls-1{stroke-width:40px;}.cls-2{stroke-width:20px;}.cls-3{stroke-width:10px;}.cls-11,.cls-12,.cls-13,.cls-14,.cls-15,.cls-4,.cls-5,.cls-7,.cls-8,.cls-9{stroke:#040000;}.cls-4{stroke-width:1.52px;}.cls-5{stroke-width:1.39px;}.cls-6,.cls-8{fill:#040000;}.cls-7{stroke-width:0.51px;}.cls-8{stroke-width:0.3px;}.cls-9{stroke-width:0.53px;}.cls-10{opacity:0;}.cls-11{stroke-width:0.91px;}.cls-12{stroke-width:5px;}.cls-13{stroke-width:1.04px;}.cls-14,.cls-15{stroke-linecap:round;}.cls-14{stroke-width:0.75px;}.cls-15{stroke-width:0.89px;}</style></defs><path class="cls-1" d="M814.05,180.73,905.2,697C918.93,774.83,863,847.68,784.3,854.53L378.76,889.79l-50.38,3.27a145.08,145.08,0,0,1-153.1-124.91L139.77,511.38a11.86,11.86,0,0,0-15.84-9.52h0a14.27,14.27,0,0,1-19-11.06L70.79,284.51a130,130,0,0,1,51.25-126L222,85.09A79.63,79.63,0,0,1,268.58,69.6l408.46-3A138.11,138.11,0,0,1,814.05,180.73Z"/><path class="cls-2" d="M197,103.42s-31.25,36.37-18.25,113.37c9,53.4,63.56,357.46,96.15,538.86a156.92,156.92,0,0,0,162.9,128.94l1.92-.1"/><path class="cls-1" d="M126.79,501.2,57.45,723.63c-21.21,68,31.76,136.43,102.94,132.9l58.85-2.91"/><path class="cls-2" d="M151.53,588.16l-38.82,124.5c-16,51.36,24,103,77.69,100.31"/><path class="cls-2" d="M439.26,785a71.61,71.61,0,0,1-70.85-60.08l-83-498.59a71.87,71.87,0,0,1,70.71-83.65l338.52-.84a71.59,71.59,0,0,1,70.93,60.29l76.16,466.69a71.86,71.86,0,0,1-63.87,83.09L446.36,784.67C444,784.9,441.62,785,439.26,785Z"/><path class="cls-3" d="M774,712.13,442.42,744.86a31.87,31.87,0,0,1-34.56-26.48L324.91,219.79a31.86,31.86,0,0,1,31.35-37.09l338.34-.84a31.86,31.86,0,0,1,31.53,26.73l76.16,466.69A31.87,31.87,0,0,1,774,712.13Z"/><line class="cls-4" x1="707.25" y1="523.9" x2="720.44" y2="480.45"/><path class="cls-5" d="M707.46,489.68c.7,4.24-.91,7.76-3.6,7.87s-5.44-3.24-6.15-7.48.91-7.76,3.6-7.87S706.75,485.45,707.46,489.68Z"/><path class="cls-5" d="M729.5,514.81c.71,4.23-.89,7.75-3.56,7.87s-5.42-3.21-6.12-7.45.89-7.76,3.57-7.87S728.8,510.58,729.5,514.81Z"/><path class="cls-6" d="M461.61,657c3.21-1.05,5.29-4.56,4.61-8.75-.76-4.75-4.44-8.2-8.5-8a5.67,5.67,0,0,0-2.29.7l-.09-.56c-1-6.15-6.1-10.93-11.37-10.63s-8.78,5.61-7.79,11.78c.18,1.12.56,1.95.74,3.07a2.82,2.82,0,0,0-1.49-.19c-3.36.2-5.52,3.45-4.89,7.38s3.77,6.86,7.14,6.65Zm.9,5.6-23.93,1.52c-6,.38-11.73-4.94-12.85-12-.9-5.62,1.47-10.58,5.29-12.51-.35-8.2,4.62-15,12.06-15.42,6.22-.36,12.47,4.07,15.41,10.39,5.86.49,11.32,6.09,12.49,13.34s-2.64,13.43-8.47,14.65Zm0,0"/><polyline class="cls-7" points="401.65 501.72 400.75 496.09 442.45 494.47 446 516.5 404.3 518.26 403.12 510.93"/><path class="cls-8" d="M413.42,515.56l-4.91.2a1.06,1.06,0,0,1-1-.92L405,499.21a.79.79,0,0,1,.71-1l4.91-.19a1.07,1.07,0,0,1,1,.92l2.5,15.61A.81.81,0,0,1,413.42,515.56Z"/><path class="cls-8" d="M422.82,515.16l-4.89.21a1.06,1.06,0,0,1-1-.92l-2.51-15.61a.8.8,0,0,1,.72-1l4.89-.19a1.07,1.07,0,0,1,1,.92l2.5,15.59A.8.8,0,0,1,422.82,515.16Z"/><path class="cls-8" d="M432.19,514.77l-4.88.21a1.06,1.06,0,0,1-1-.92l-2.5-15.59a.79.79,0,0,1,.71-1l4.87-.19a1.06,1.06,0,0,1,1,.92l2.5,15.57A.79.79,0,0,1,432.19,514.77Z"/><path class="cls-8" d="M441.54,514.38l-4.86.2a1.06,1.06,0,0,1-1-.92l-2.5-15.56a.81.81,0,0,1,.71-1l4.86-.19a1.07,1.07,0,0,1,1,.92l2.5,15.55A.8.8,0,0,1,441.54,514.38Z"/><path class="cls-9" d="M446.94,510.22l-.86,0a1.39,1.39,0,0,1-1.32-1.2l-1.15-7.15a1,1,0,0,1,.92-1.29l.86,0a1.38,1.38,0,0,1,1.33,1.2l1.15,7.14A1,1,0,0,1,446.94,510.22Z"/><path d="M624.81,558l-6,10.39-5.07-5.47A20.87,20.87,0,0,1,609,555c-.38-1.35-.63-3-1-4.87l-5.52-36.83c-.84-5.13-.47-7.32,1.4-11.21l3.31-7.2L617,506.15Z"/><path d="M678.59,637.28,689,649.43l-2.86,5.08c-1.9,3.67-2.9,4.28-7.87,4.6l-32.16,2.09c-4.84.31-7-.37-9.65-3.49l-4-4.42,7.65-13.63Z"/><polygon points="666.71 558.38 676.07 569.01 669.8 579.9 631.48 581.94 621.96 571.79 628.2 560.29 666.71 558.38 666.71 558.38"/><path d="M619.16,502.53l-10.12-11,2.69-5.81c1.55-3.59,3-4.72,6.29-4.85l34.86-1.32c3.06-.12,5.08.88,7.77,4.28l4.74,5.21-7.52,11.89Z"/><path d="M672.68,583.28l6.19-11.16,5.53,5.93a16.67,16.67,0,0,1,3.64,6.84,49.11,49.11,0,0,1,1,5.09l6.06,39.76a30.37,30.37,0,0,1,.5,4.59c.06,1.62-.32,3-1.75,5.54l-3.44,6.47-9.89-11.09Z"/><path class="cls-10" d="M660.68,504.05,668,492.17l4.27,4.94a17.18,17.18,0,0,1,3.5,6.32,39.35,39.35,0,0,1,.8,4.27l6.08,39.09c.9,6.7.58,9.69-1.39,13l-3.32,6.12-9.4-10.09Z"/><path d="M538.7,562.27l-6.15,10.53-5.18-5.54a21.14,21.14,0,0,1-4.88-8c-.38-1.37-.63-3-1-4.94L516,517c-.84-5.2-.45-7.42,1.48-11.36l3.42-7.29,10,11.42Z"/><path d="M593.55,642.53l10.61,12.29L601.21,660c-2,3.72-3,4.34-8.1,4.67l-33,2.14c-5,.32-7.18-.37-9.88-3.53l-4.08-4.47L554.06,645Z"/><polygon points="581.66 562.62 591.22 573.38 584.75 584.42 545.44 586.5 535.72 576.23 542.16 564.58 581.66 562.61 581.66 562.62"/><path d="M533.11,506.08l-10.34-11.14,2.79-5.88c1.6-3.63,3.09-4.79,6.47-4.91l35.74-1.36c3.15-.12,5.21.89,8,4.33l4.84,5.27-7.75,12.05Z"/><path d="M587.68,587.83l6.4-11.31,5.64,6a16.79,16.79,0,0,1,3.72,6.93,52,52,0,0,1,1,5.15l6.06,40.27a28.08,28.08,0,0,1,.49,4.64c.06,1.65-.33,3.05-1.81,5.61l-3.55,6.56-10.1-11.22Z"/><path class="cls-10" d="M497.21,410.68l-7.42,11.73-5.16-6.18a15.45,15.45,0,0,1-3.35-6.22,30,30,0,0,1-.66-3.83l-6.23-41.26c-.46-3.82-.29-6.84.91-9l5-8.84,8.85,9.39Z"/><path class="cls-10" d="M485.29,330.3l-6.21,10.2-5.19-5.65a21.65,21.65,0,0,1-4.89-8.12c-.37-1.36-.63-3-1-4.91l-5.48-37c-.83-5.17-.43-7.34,1.52-11.17l3.45-7.09,10.05,11.61Z"/><path class="cls-10" d="M540.26,411.42l10.64,12.5-3,5c-2,3.61-3,4.19-8.15,4.34l-33.17,1c-5,.15-7.22-.61-9.93-3.82l-4.09-4.55,8-13.39Z"/><polygon class="cls-10" points="528.49 332.08 538.08 343.03 531.54 353.72 492.02 354.46 482.27 343.99 488.77 332.7 528.49 332.07 528.49 332.08"/><path d="M479.8,274.6l-10.37-11.35,2.82-5.72c1.62-3.53,3.12-4.62,6.51-4.63l36-.15c3.16,0,5.23,1.05,8,4.54l4.86,5.37-7.82,11.65Z"/><path d="M534.49,357.19l6.46-11,5.66,6.12a17.13,17.13,0,0,1,3.71,7,49.74,49.74,0,0,1,1,5.12l6,40a28.62,28.62,0,0,1,.48,4.6c.06,1.63-.35,3-1.83,5.49l-3.59,6.36-10.13-11.42Z"/><path d="M522.6,277.52l7.61-11.65,4.37,5.09a17.65,17.65,0,0,1,3.57,6.44,37.43,37.43,0,0,1,.8,4.31l6,39.3c.89,6.74.54,9.72-1.51,13L540,340l-9.63-10.4Z"/><path class="cls-10" d="M586.76,408.25l-7.19,11.58-5-6.1a15.41,15.41,0,0,1-3.29-6.14,29.46,29.46,0,0,1-.66-3.78l-6.22-40.72c-.46-3.77-.31-6.75.85-8.92l4.84-8.73,8.66,9.27Z"/><path class="cls-10" d="M574.84,328.93l-6,10.06-5.08-5.58a21.61,21.61,0,0,1-4.79-8c-.37-1.34-.62-2.95-1-4.84L552.53,284c-.83-5.1-.45-7.25,1.44-11l3.33-7,9.84,11.46Z"/><path d="M628.71,409l10.41,12.34-2.88,4.93c-1.92,3.55-2.93,4.12-7.93,4.28l-32.31,1c-4.86.15-7-.6-9.69-3.77l-4-4.49L590,410.06Z"/><path d="M569.29,274l-10.15-11.2,2.72-5.64c1.57-3.49,3-4.57,6.33-4.58l35-.15c3.08,0,5.11,1,7.8,4.49l4.75,5.3-7.58,11.5Z"/><path d="M581,353.24,571,343l2.79-5.24c1.61-3.23,3.08-4.24,6.39-4.3l35-.56c3.08-.05,5.09.9,7.74,4l4.68,4.83-7.73,10.69Z"/><path d="M622.88,355.47l6.25-10.81,5.54,6a17.1,17.1,0,0,1,3.65,6.88,51.31,51.31,0,0,1,1,5.06l6,39.47a29.49,29.49,0,0,1,.49,4.54c.06,1.61-.33,3-1.77,5.42l-3.47,6.27-9.91-11.28Z"/><path d="M611,276.83l7.38-11.49,4.28,5a17.57,17.57,0,0,1,3.5,6.36A41.49,41.49,0,0,1,627,281l6,38.8c.89,6.65.56,9.59-1.42,12.83l-3.36,5.92-9.42-10.27Z"/><path class="cls-10" d="M678.23,416.24l-3.82,6.28-2.71-3.31a8.32,8.32,0,0,1-1.77-3.32,15.49,15.49,0,0,1-.36-2.05l-3.42-22.09a8.35,8.35,0,0,1,.43-4.85l2.57-4.75,4.65,5Z"/><path d="M671.68,373.15l-3.2,5.49-2.73-3a11.84,11.84,0,0,1-2.58-4.34c-.2-.73-.34-1.6-.52-2.63l-3-19.85c-.46-2.78-.27-3.95.73-6l1.77-3.84,5.29,6.19Z"/><path class="cls-10" d="M700.75,416.62l5.63,6.71L704.83,426c-1,1.94-1.56,2.25-4.25,2.33l-17.35.53c-2.61.08-3.77-.33-5.2-2.05l-2.15-2.43,4.1-7.17Z"/><polygon points="694.27 373.96 699.35 379.83 695.96 385.6 675.29 386.1 670.16 380.51 673.5 374.43 694.27 373.96 694.27 373.96"/><path class="cls-10" d="M668.57,343.24l-5.45-6.05,1.44-3.09c.83-1.91,1.6-2.51,3.38-2.54l18.8-.3c1.66,0,2.75.54,4.21,2.41l2.57,2.87-4.06,6.33Z"/><path d="M697.52,387.46l3.35-5.91,3,3.28a9.36,9.36,0,0,1,2,3.75,26.72,26.72,0,0,1,.55,2.75l3.3,21.52a15.1,15.1,0,0,1,.27,2.48,5.06,5.06,0,0,1-.94,2.95l-1.86,3.42-5.36-6.14Z"/><path d="M691,344.58l4-6.32,2.31,2.72a9.4,9.4,0,0,1,1.9,3.46,21.37,21.37,0,0,1,.44,2.32l3.32,21.18c.49,3.63.31,5.24-.75,7l-1.8,3.24-5.09-5.57Z"/><path d="M675.12,303.11l-2.31,3.73-1.63-2a5.2,5.2,0,0,1-1.07-2,9.41,9.41,0,0,1-.22-1.23l-2.06-13.29a5,5,0,0,1,.26-2.91l1.55-2.84,2.81,3.06Z"/><path d="M671.16,277.16l-1.92,3.27-1.65-1.83A7.16,7.16,0,0,1,666,276c-.12-.44-.2-1-.31-1.59l-1.82-12a4.92,4.92,0,0,1,.44-3.61l1.07-2.29,3.19,3.77Z"/><polygon points="684.85 277.95 687.92 281.52 685.86 284.97 673.36 285.08 670.26 281.67 672.28 278.04 684.84 277.94 684.85 277.95"/><path d="M669.29,259.14,666,255.46l.87-1.85c.5-1.14,1-1.49,2-1.5l11.36,0a2.91,2.91,0,0,1,2.55,1.47l1.56,1.75-2.46,3.79Z"/><path class="cls-6" d="M664.38,422c-.68-4.11-3.91-7.36-7.22-7.27s-5.45,3.5-4.77,7.62,3.93,7.37,7.23,7.27S665.06,426.08,664.38,422Z"/><path class="cls-11" d="M658.84,256.66c-.44-2.65-2.53-4.78-4.66-4.77s-3.52,2.16-3.08,4.81,2.53,4.78,4.66,4.77S659.28,259.31,658.84,256.66Z"/><line class="cls-12" x1="395.05" y1="466.12" x2="719.54" y2="454.88"/><path class="cls-13" d="M745,608.09c1.92,11.51-4.18,21.32-13.63,21.9s-18.75-8.34-20.67-19.91,4.24-21.37,13.73-21.89S743.11,596.58,745,608.09Z"/><path class="cls-14" d="M716.34,603.17c-.43-2.6.81-4.8,2.77-4.91s3.89,1.91,4.32,4.51"/><path class="cls-14" d="M730.22,602.7c-.43-2.6.8-4.79,2.76-4.9s3.88,1.9,4.31,4.5"/><path class="cls-15" d="M736.53,610.39c1.18,7.09-2,11.43-6.6,11.71s-8.88-3.63-10.06-10.74"/></svg>