<svg id="图层_1" data-name="图层 1" xmlns="http://www.w3.org/2000/svg" viewBox="0 0 80 80"><path d="M44.46,63.58H21.16a3.22,3.22,0,0,1-3.2-3.2V22.28a3.22,3.22,0,0,1,3.2-3.2h23.3a3.22,3.22,0,0,1,3.2,3.2v38.1A3.22,3.22,0,0,1,44.46,63.58Zm-23.3-42.9a1.58,1.58,0,0,0-1.6,1.6v38.1a1.58,1.58,0,0,0,1.6,1.6h23.3a1.58,1.58,0,0,0,1.6-1.6V22.28a1.58,1.58,0,0,0-1.6-1.6Z"/><path d="M43.06,59.78H22.66a1.32,1.32,0,0,1-1.3-1.3V24.08a1.32,1.32,0,0,1,1.3-1.3h20.4a1.24,1.24,0,0,1,1.2,1.3v34.4A1.24,1.24,0,0,1,43.06,59.78Zm-20.5-35.9a.22.22,0,0,0-.2.2v34.4a.22.22,0,0,0,.2.2H43a.22.22,0,0,0,.2-.2V24.08a.22.22,0,0,0-.2-.2Z"/><path d="M46.16,71.78H21.76a9.71,9.71,0,0,1-9.7-9.7V20.48a9.71,9.71,0,0,1,9.7-9.7h24.4a9.71,9.71,0,0,1,9.7,9.7v41.6A9.71,9.71,0,0,1,46.16,71.78Zm-24.4-59.4a8.07,8.07,0,0,0-8.1,8.1v41.6a8.07,8.07,0,0,0,8.1,8.1h24.4a8.07,8.07,0,0,0,8.1-8.1V20.48a8.07,8.07,0,0,0-8.1-8.1Z"/><path d="M47.36,71.88a.87.87,0,0,1-.8-.6.89.89,0,0,1,.6-1l8.8-2a6.5,6.5,0,0,0,5.1-6.3V42.08a3.12,3.12,0,0,1,3.1-3.1V20.78a5.23,5.23,0,0,0-4-5.1l-12.5-3.1a.89.89,0,0,1-.6-1,.83.83,0,0,1,1-.6l12.5,3.1a6.85,6.85,0,0,1,5.2,6.7v19a.79.79,0,0,1-.8.8h-.8a1.54,1.54,0,0,0-1.5,1.5v19.8a8,8,0,0,1-6.3,7.9l-8.8,2C47.46,71.88,47.46,71.88,47.36,71.88Z"/><path d="M68.66,65.18h-7.1a.5.5,0,0,1,0-1h7.1a3.48,3.48,0,0,0,2.9-2,3.67,3.67,0,0,0,.2-3.5L61.46,44a.57.57,0,1,1,.9-.7l10.3,14.6a5.08,5.08,0,0,1-4,7.3Z"/><path d="M72.46,61.88h-.2a.52.52,0,0,1-.3-.7l1.1-2.9a3.92,3.92,0,0,0-.2-3.5l-10.3-14.3a.57.57,0,0,1,.9-.7l10.3,14.3a4.55,4.55,0,0,1,.3,4.5L73,61.48C73,61.78,72.66,61.88,72.46,61.88Z"/><path d="M67.66,63.08H62a.5.5,0,1,1,0-1h5.7a1.89,1.89,0,0,0,1.8-1.1,1.81,1.81,0,0,0-.2-2.1l-7.8-10.5a.57.57,0,1,1,.9-.7l7.8,10.5a3.27,3.27,0,0,1,.3,3.3A3.08,3.08,0,0,1,67.66,63.08Z"/><path d="M69.86,59.48h-8a.5.5,0,0,1,0-1h8a.47.47,0,0,1,.5.5C70.46,59.28,70.16,59.48,69.86,59.48Z"/></svg>