<svg id="图层_1" data-name="图层 1" xmlns="http://www.w3.org/2000/svg" viewBox="0 0 960 960"><defs><style>.cls-1,.cls-2,.cls-3{fill:none;stroke:#000;stroke-miterlimit:10;}.cls-1{stroke-width:20px;}.cls-2{stroke-width:40px;}.cls-3{stroke-width:10px;}</style></defs><path class="cls-1" d="M101,173.4V692.12L276.1,703.6q7.89.52,15.82.27L859,686.12V175.43a39.25,39.25,0,0,0-38.3-39.24L281,123.17a36.09,36.09,0,0,0-4,.11l-139.82,11A39.25,39.25,0,0,0,101,173.4Z"/><path class="cls-2" d="M859,686.12V175.43a39.25,39.25,0,0,0-38.3-39.24L281,123.17a36.09,36.09,0,0,0-4,.11l-139.82,11A39.25,39.25,0,0,0,101,173.4V692.12"/><line class="cls-1" x1="279" y1="123.12" x2="279" y2="704.12"/><path class="cls-2" d="M101,692.12v69.77a65.7,65.7,0,0,0,60,65.46L259.69,836a244.75,244.75,0,0,0,26.67.86L794.5,825.55a65.72,65.72,0,0,0,64.25-65.95l-.22-82.48"/><ellipse class="cls-1" cx="614.5" cy="417.12" rx="85.5" ry="103"/><ellipse class="cls-3" cx="614.5" cy="417.12" rx="111.5" ry="130"/></svg>