<svg id="图层_1" data-name="图层 1" xmlns="http://www.w3.org/2000/svg" viewBox="0 0 80 80"><path d="M54.83,59.16l-1.61,0L13,57.85V15.37a2.13,2.13,0,0,1,2.07-2.14l36.39-.44c1.63-.06,3.3,0,5,.07l9.88.63a2.16,2.16,0,0,1,2,2.16L68,58.47l-10,.6Q56.38,59.16,54.83,59.16ZM14.58,56.34l38.69,1.23c1.5,0,3,0,4.55-.06l8.6-.51.33-41.36a.58.58,0,0,0-.54-.59l-9.88-.63c-1.61-.09-3.22-.12-4.82-.07l-36.38.44a.58.58,0,0,0-.55.58Z"/><path d="M54.21,67.18c-.57,0-1.13,0-1.69,0L18.14,66A5.29,5.29,0,0,1,13,60.68V56.57h2.08v4.11a3.23,3.23,0,0,0,3.13,3.23l34.38,1.16c1.54.05,3.11,0,4.67-.06l5.62-.34a3.25,3.25,0,0,0,3-3.19l0-4.37,2.08,0,0,4.38a5.33,5.33,0,0,1-5,5.28l-5.62.34C56.33,67.15,55.26,67.18,54.21,67.18Z"/><path d="M31.23,44.73c-3.94,0-7.15-4-7.15-8.83s3.21-8.83,7.15-8.83,7.15,4,7.15,8.83S35.18,44.73,31.23,44.73Zm0-16.1c-3.08,0-5.59,3.26-5.59,7.27s2.51,7.27,5.59,7.27,5.59-3.26,5.59-7.27S34.31,28.63,31.23,28.63Z"/><path d="M31.23,46c-4.71,0-8.54-4.54-8.54-10.11s3.83-10.1,8.54-10.1,8.54,4.53,8.54,10.1S35.94,46,31.23,46Zm0-19.69c-4.42,0-8,4.3-8,9.58s3.6,9.59,8,9.59,8-4.3,8-9.59S35.66,26.32,31.23,26.32Z"/><rect x="53.79" y="13.56" width="1.56" height="44.29"/><path d="M65.07,57.52H64V18.93a1.61,1.61,0,0,1,1.61-1.6h1.89v1H65.63a.56.56,0,0,0-.56.56Z"/></svg>