<svg id="图层_1" data-name="图层 1" xmlns="http://www.w3.org/2000/svg" viewBox="0 0 960 960"><defs><style>.cls-1,.cls-2,.cls-3{fill:none;stroke:#000;stroke-miterlimit:10;}.cls-1{stroke-width:40px;}.cls-2{stroke-width:10px;}.cls-3{stroke-width:20px;}</style></defs><path class="cls-1" d="M554,199.21,84.31,354c-16.46,5.43-18.85,27.73-3.9,36.51L324.94,534.18a91.17,91.17,0,0,0,77.44,7.05L866.74,371.91c14.58-5.32,15.82-25.45,2-32.52L602.47,203A63.12,63.12,0,0,0,554,199.21Z"/><path class="cls-2" d="M371.14,506.75a51.32,51.32,0,0,1-25.94-7.05c-1.75-1-127.53-74.93-198-116.34a4.54,4.54,0,0,1,.88-8.24L566.47,237.2a23.13,23.13,0,0,1,17.77,1.38L795.91,347a4.55,4.55,0,0,1-.52,8.33L388.68,503.65a51,51,0,0,1-17.53,3.1Z"/><path class="cls-2" d="M421.26,334.75l166.9-63.19a3.93,3.93,0,0,1,3.3.23l43.94,24.57a3.74,3.74,0,0,1-.62,6.77L466.94,367.32a3.94,3.94,0,0,1-3.4-.28l-43-25.58A3.73,3.73,0,0,1,421.26,334.75Z"/><path class="cls-1" d="M70,375V444.5c0,1,0,1.94.08,2.91l5.41,93.5a50.33,50.33,0,0,0,23.66,39.82L351.43,737.55a50.33,50.33,0,0,0,45.16,4L841.93,564.31a63.77,63.77,0,0,0,39.9-53L890,429l-15-89"/><line class="cls-3" x1="368" y1="546.96" x2="368" y2="754.96"/><path class="cls-3" d="M429,727h37a0,0,0,0,1,0,0v22a15,15,0,0,1-15,15H444a15,15,0,0,1-15-15V727A0,0,0,0,1,429,727Z"/><path class="cls-3" d="M133,613.92a15,15,0,0,1-15,15H111a15,15,0,0,1-15-15V592"/><path class="cls-3" d="M823,571h37a0,0,0,0,1,0,0v22a15,15,0,0,1-15,15H838a15,15,0,0,1-15-15V571A0,0,0,0,1,823,571Z"/><ellipse cx="529.16" cy="394.78" rx="15.42" ry="9.75" transform="translate(-107.14 218.76) rotate(-21.26)"/><ellipse cx="600.16" cy="369.78" rx="15.42" ry="9.75" transform="translate(-93.24 242.81) rotate(-21.26)"/><ellipse cx="666.16" cy="343.78" rx="15.42" ry="9.75" transform="translate(-79.32 264.97) rotate(-21.26)"/></svg>