<svg id="图层_1" data-name="图层 1" xmlns="http://www.w3.org/2000/svg" viewBox="0 0 80 80"><path d="M76.11,41.06l-.24-6.75h0a.09.09,0,0,0,0-.05,1.28,1.28,0,0,0-1-1L32.58,22.6a5.83,5.83,0,0,0-4.43.63L8.34,34.87a1.4,1.4,0,0,0-.69,1.37h0l.09,6.27a.65.65,0,0,0,0,.14l.62,7.74a3.13,3.13,0,0,0,2.21,2.75l.63.2.07,1.31h0v.05a.87.87,0,0,0,.27.59,1.5,1.5,0,0,0,1.1.36h.15c1.48-.07,1.56-.66,1.56-.73v-.6L49.9,65.39v1.27h0v.1s.23.74,1.6.74,1.49-.6,1.5-.67v-.76h.25a7.48,7.48,0,0,0,4.6-1.58L75.34,50.69l.74-9.6Zm-21.74.74c.9,0,1.64.43,1.64,1s-.74,1-1.64,1-1.64-.44-1.64-1S53.47,41.8,54.37,41.8Zm-9-2.33c.9,0,1.64.43,1.64,1s-.74,1-1.64,1-1.64-.44-1.64-1S44.48,39.47,45.39,39.47ZM36.91,37c.9,0,1.63.43,1.63,1s-.73,1-1.63,1-1.64-.44-1.64-1S36,37,36.91,37ZM52,49.82a5.84,5.84,0,0,0,1.66.23,6.14,6.14,0,0,0,3.63-1.19L74.78,36l.16,4.54L57.58,53.84a6,6,0,0,1-5.3,1C32,49.05,10.14,42.76,9.45,42.52a5.21,5.21,0,0,1-.58-.23L8.81,37.5ZM14.06,54.4a2.09,2.09,0,0,1-1.31.44c-.92,0-1.18-.44-1.22-.53l0-.88,2.57.8ZM52.73,66.29a2,2,0,0,1-1.27.35,1.66,1.66,0,0,1-1.27-.45v-.71l.86.27a7.42,7.42,0,0,0,1.68.31ZM74.23,50.1,57.16,63.6a6.35,6.35,0,0,1-5.77,1.05L10.9,52A2,2,0,0,1,9.5,50.3L9,43.57l.11,0C9.94,43.91,39.36,52.35,52,56a7.35,7.35,0,0,0,2,.27,7.21,7.21,0,0,0,4.36-1.47L74.85,42Z"/></svg>