<?xml version="1.0" encoding="utf-8"?>
<!-- Generator: Adobe Illustrator 24.1.0, SVG Export Plug-In . SVG Version: 6.00 Build 0)  -->
<svg version="1.1" id="图层_1" xmlns="http://www.w3.org/2000/svg" xmlns:xlink="http://www.w3.org/1999/xlink" x="0px" y="0px"
	 viewBox="0 0 80 80" style="enable-background:new 0 0 80 80;" xml:space="preserve">
<g>
	<g>
		<path d="M14.8,55.5c-0.6-0.5-1-1.3-1-2.2l-0.3-20.4c0-1.6,1.2-2.9,2.8-3.1L73.8,23c0.8-0.1,1.7,0.2,2.3,0.8c0.6,0.5,1,1.3,1,2.2
			l0.4,20.4c0,1.6-1.2,2.9-2.8,3.1l-57.5,6.8c-0.1,0-0.2,0-0.3,0C16.1,56.3,15.3,56.1,14.8,55.5z M74.5,48.4c1-0.1,1.8-1,1.8-2
			L76,26c0-0.5-0.3-1-0.7-1.4c-0.4-0.4-0.9-0.6-1.5-0.5l-57.4,6.8c-1.1,0.1-1.8,1-1.8,2l0.3,20.4c0,0.5,0.2,1,0.6,1.4
			s0.9,0.6,1.5,0.5L74.5,48.4z"/>
	</g>
	<g>
		<path d="M14.8,55.5c-0.6-0.5-1-1.3-1-2.2l-0.3-20.4c0-1.6,1.2-2.9,2.8-3.1L73.8,23c0.8-0.1,1.7,0.2,2.3,0.8c0.6,0.5,1,1.3,1,2.2
			l0.4,20.4c0,1.6-1.2,2.9-2.8,3.1l-57.5,6.8c-0.1,0-0.2,0-0.3,0C16.1,56.3,15.3,56.1,14.8,55.5z M74.5,48.4c1-0.1,1.8-1,1.8-2
			L76,26c0-0.5-0.3-1-0.7-1.4c-0.4-0.4-0.9-0.6-1.5-0.5l-57.4,6.8c-1.1,0.1-1.8,1-1.8,2l0.3,20.4c0,0.5,0.2,1,0.6,1.4
			s0.9,0.6,1.5,0.5L74.5,48.4z"/>
	</g>
	<g>
		<path d="M15.9,53.3l-0.3-20.4c0-0.5,0.4-0.8,0.8-0.9l57.5-6.8c0.5,0,0.9,0.3,0.9,0.8l0.4,20.4c0,0.5-0.4,0.8-0.8,0.9l-57.6,6.8
			l0,0C16.4,54.1,16,53.8,15.9,53.3z M74.3,46.6c0,0,0.1-0.1,0.1-0.2L74.1,26L74,25.9l-57.5,6.7c0,0-0.1,0.1-0.1,0.2l0.3,20.4
			c0,0.1,0.1,0.2,0.2,0.2l0,0L74.3,46.6z"/>
	</g>
	<g>
		<path d="M62.5,37.4c-0.1-0.1-0.2-0.4-0.2-0.6v-6.3c0-0.4,0.3-0.7,0.7-0.8l1.4-0.2c0.2,0,0.4,0,0.6,0.2c0.1,0.1,0.2,0.4,0.2,0.6
			v6.3c0,0.4-0.3,0.7-0.7,0.8L63,37.6c0.1,0,0,0,0,0C62.8,37.6,62.6,37.5,62.5,37.4z M64.4,36.7C64.5,36.7,64.5,36.6,64.4,36.7
			l0.1-6.4l-0.1-0.1L63,30.4c-0.1,0-0.1,0.1-0.1,0.1l0.1,6.4c-0.1,0,0,0,0,0L64.4,36.7z"/>
	</g>
	<g>
		<path d="M53.8,37.6c-0.1-0.2-0.3-0.5-0.3-0.8v-4.3c0-0.5,0.4-0.9,1-1l0.9-0.1c0.2-0.1,0.6,0,0.8,0.2c0.1,0.2,0.3,0.5,0.3,0.8v4.3
			c0,0.5-0.4,0.9-1,1l-1,0.1l0,0C54.2,37.8,54,37.7,53.8,37.6z M55.4,32l-0.9,0.1c-0.1,0-0.3,0.1-0.3,0.3v4.3c0,0,0,0.1,0.1,0.2
			c0,0.1,0.1,0.1,0.2,0.1l0.9-0.1c0.1,0,0.3-0.1,0.3-0.3v-4.3c0,0,0-0.1-0.1-0.2C55.6,32,55.5,32,55.4,32L55.4,32z"/>
	</g>
	<g>
		<path d="M56.8,43c0-1.5,1.2-2.9,2.8-3.1c0.8-0.1,1.5,0.1,2.1,0.6c0.6,0.6,0.9,1.2,0.9,2v3.3l-5.8,0.6V43z M61.8,42.5
			c0-0.5-0.2-1.1-0.6-1.4c-0.4-0.4-0.9-0.6-1.5-0.5c-1.2,0.1-2.2,1.2-2.2,2.4v2.6l4.3-0.5C61.8,45.1,61.8,42.5,61.8,42.5z"/>
	</g>
	<g>
		<path d="M57.8,45.1l-0.2-2c0-0.9,0.8-1.8,1.8-1.9l0,0c1-0.2,1.8,0.5,1.8,1.5v2L57.8,45.1L57.8,45.1z"/>
	</g>
	<g>
		<path d="M34.8,40.6c-0.1-0.1-0.2-0.4-0.2-0.6l0-6.3c0-0.4,0.3-0.7,0.7-0.8l1.4-0.2c0.2,0,0.4,0,0.6,0.2c0.1,0.1,0.2,0.4,0.2,0.6
			l0,6.3c0,0.4-0.3,0.7-0.7,0.8l-1.5,0.2c0.1,0,0,0,0,0C35.1,40.8,34.9,40.8,34.8,40.6z M36.7,39.9C36.8,39.9,36.8,39.8,36.7,39.9
			l0.1-6.4l-0.1-0.1l-1.4,0.2c-0.1,0-0.1,0.1-0.1,0.1l0.1,6.4c-0.1,0,0,0,0,0L36.7,39.9z"/>
	</g>
	<g>
		<path d="M26.1,40.8c-0.1-0.2-0.3-0.5-0.3-0.8v-4.3c0-0.5,0.4-0.9,1-1l0.9-0.1c0.2-0.1,0.6,0,0.8,0.2c0.1,0.2,0.3,0.5,0.3,0.8v4.3
			c0,0.5-0.4,0.9-1,1l-1,0.1l0,0C26.5,41,26.3,40.9,26.1,40.8z M27.7,35.2l-0.9,0.1c-0.1,0-0.3,0.1-0.3,0.3v4.3c0,0,0,0.1,0.1,0.2
			c0,0.1,0.1,0.1,0.2,0.1l0.9-0.1c0.1,0,0.3-0.1,0.3-0.3v-4.3c0,0,0-0.1-0.1-0.2C27.9,35.2,27.8,35.2,27.7,35.2
			C27.7,35.2,27.6,35.2,27.7,35.2z"/>
	</g>
	<g>
		<path d="M29,49.6v-3.4c0-1.5,1.2-2.9,2.8-3.1c0.8-0.1,1.5,0.1,2.1,0.6c0.6,0.6,0.9,1.2,0.9,2V49L29,49.6L29,49.6z M34.1,45.7
			c0-0.5-0.2-1.1-0.6-1.4c-0.4-0.4-0.9-0.6-1.5-0.5c-1.2,0.1-2.2,1.2-2.2,2.4v2.6l4.3-0.5V45.7z"/>
	</g>
	<g>
		<path d="M30,48.3l-0.2-2c0-0.9,0.8-1.8,1.8-1.9l0,0c1-0.2,1.8,0.5,1.8,1.5v2L30,48.3L30,48.3z"/>
	</g>
	<g>
		<path d="M6.9,52.5c-1.4-0.5-2.3-1.9-2.3-3.4v-18c0-1.5,0.4-2.6,1.2-3.4c1.2-1.1,2.6-1,2.6-1l56-6.2h0.1L75,23l-0.2,1l-10.4-2.5
			l-56,6.2c0,0-1.1,0-1.8,0.7C6,29,5.7,29.9,5.7,31v18c0,1.1,0.6,2.1,1.6,2.5l8.4,3.4l-0.4,1L6.9,52.5z"/>
	</g>
	<g>
		<path d="M7.1,41.5c0-2.4,1-4.3,2.2-4.3s2.2,1.9,2.2,4.3c0,2.4-0.9,4.3-2.2,4.3C8,45.8,7,43.9,7.1,41.5z M7.8,41.5
			c0,2.2,0.8,3.6,1.5,3.6s1.5-1.5,1.5-3.6c0-2.2-0.8-3.6-1.5-3.6S7.8,39.3,7.8,41.5z"/>
	</g>
</g>
</svg>
