<?xml version="1.0" encoding="utf-8"?>
<!-- Generator: Adobe Illustrator 24.1.0, SVG Export Plug-In . SVG Version: 6.00 Build 0)  -->
<svg version="1.1" id="图层_1" xmlns="http://www.w3.org/2000/svg" xmlns:xlink="http://www.w3.org/1999/xlink" x="0px" y="0px"
	 viewBox="0 0 120 120" style="enable-background:new 0 0 120 120;" xml:space="preserve">
<style type="text/css">
	.st0{fill:#1A1A1A;}
</style>
<g>
	<path d="M95.8,115H24.2C13.6,115,5,106.4,5,95.8V24.2C5,13.6,13.6,5,24.2,5h71.7c10.6,0,19.1,8.6,19.1,19.1v71.7
		C115,106.4,106.4,115,95.8,115z M24.2,11C16.9,11,11,16.9,11,24.2v71.7c0,7.2,5.9,13.1,13.1,13.1h71.7c7.2,0,13.1-5.9,13.1-13.1
		V24.2c0-7.2-5.9-13.1-13.1-13.1H24.2V11z"/>
</g>
<g>
	<g>
		<g>
			<path d="M39.7,60.9c-0.8-1-1.3-2.2-1.3-3.6c0-1.4,0.4-2.7,1.2-3.8c0.1-0.1,0.1-0.1,0.2-0.1c0.1,0,0.2,0,0.3,0.1l0.4,0.3
				c0.1,0.1,0.2,0.3,0,0.5c-0.6,0.9-1,1.9-0.9,3c0,1,0.4,2,1,2.8c0.1,0.2,0.1,0.4,0,0.5l-0.3,0.3C40.2,61,40.1,61,40,61
				S39.8,61,39.7,60.9L39.7,60.9z"/>
		</g>
		<g>
			<path d="M37.1,63.5c-1.5-1.7-2.3-3.8-2.4-6.1c-0.1-2.4,0.8-4.7,2.2-6.4c0.1-0.1,0.1-0.1,0.2-0.1c0.1,0,0.2,0,0.2,0.1l0.4,0.4
				c0.1,0.1,0.1,0.3,0,0.4c-1.3,1.6-1.9,3.5-1.9,5.6c0.1,1.9,0.8,3.8,2,5.3c0.1,0.2,0.1,0.4,0,0.5l-0.3,0.3
				c-0.1,0.1-0.2,0.1-0.3,0.1C37.3,63.6,37.2,63.6,37.1,63.5L37.1,63.5z"/>
		</g>
	</g>
	<g>
		<g>
			<path d="M80.3,60.9c0.8-1,1.3-2.2,1.3-3.6c0-1.4-0.4-2.7-1.2-3.8c-0.1-0.1-0.1-0.1-0.2-0.1s-0.2,0-0.3,0.1l-0.4,0.3
				c-0.1,0.1-0.2,0.3,0,0.5c0.6,0.9,1,1.9,0.9,3c0,1-0.4,2-1,2.8c-0.1,0.2-0.1,0.4,0,0.5l0.3,0.3C79.8,61,79.9,61,80,61
				S80.2,61,80.3,60.9L80.3,60.9z"/>
		</g>
		<g>
			<path d="M82.9,63.5c1.5-1.7,2.3-3.8,2.4-6.1c0.1-2.4-0.8-4.7-2.2-6.4c-0.1-0.1-0.1-0.1-0.2-0.1s-0.2,0-0.2,0.1l-0.4,0.4
				c-0.1,0.1-0.1,0.3,0,0.4c1.3,1.6,1.9,3.5,1.9,5.6c-0.1,1.9-0.8,3.8-2,5.3c-0.1,0.2-0.1,0.4,0,0.5l0.3,0.3
				C82.6,63.6,82.7,63.6,82.9,63.5C82.7,63.6,82.8,63.6,82.9,63.5L82.9,63.5z"/>
		</g>
	</g>
	<g>
		<g>
			<path class="st0" d="M56.7,53.3l-3.5,1.3v6.8h-3.8v-9.5l0,0l10.1-3.7C60,48,60.5,48,61,48c2.1,0.1,4,1.5,4.7,3.5
				c0.4,1.1,0.7,1.9,1,2.3c1.8,2.4,4.7,3.8,7.7,3.8v3.8c-4,0-7.8-1.8-10.4-4.9l-1.3,7.6l4,3.4v13.1h-3.8V69.3l-4.4-3.7l-1.4,7.9
				l-13.3-2.3l0.7-3.8l9.5,1.7L56.7,53.3z M63.8,47c-2.1,0-3.8-1.7-3.8-3.8s1.7-3.8,3.8-3.8c2.1,0,3.8,1.7,3.8,3.8
				C67.7,45.3,65.9,47,63.8,47L63.8,47z"/>
		</g>
	</g>
</g>
</svg>
