<?xml version="1.0" encoding="utf-8"?>
<!-- Generator: Adobe Illustrator 24.1.0, SVG Export Plug-In . SVG Version: 6.00 Build 0)  -->
<svg version="1.1" id="图层_1" xmlns="http://www.w3.org/2000/svg" xmlns:xlink="http://www.w3.org/1999/xlink" x="0px" y="0px"
	 viewBox="0 0 80 80" style="enable-background:new 0 0 80 80;" xml:space="preserve">
<g>
	<g>
		<path d="M18.3,64.7L5.2,64L4.8,8.6c0-1.6,1.2-2.7,2.6-2.8L20.2,5c2.1-0.1,4.3-0.3,6.3-0.1l47.2,0.5c1.6,0,2.7,1.2,2.7,2.7v55.1
			l-52.1,1.7c-0.6,0-1.4,0-2.1,0C20.9,64.9,19.6,64.7,18.3,64.7z M74.3,61.1V7.9c0-0.4-0.3-0.8-0.6-0.8L26.5,6.6
			c-2.1,0-4.1,0-6.2,0.1L7.4,7.5C7,7.5,6.8,7.9,6.8,8.3l0.4,53.6l11.1,0.6c2.1,0.1,4,0.1,6,0.1l50.1-1.6H74.3z"/>
	</g>
	<g>
		<path d="M19,75.1l-7.3-0.4c-3.6-0.3-6.5-3.2-6.5-6.9v-5.7h2.7v5.7c0,2.2,1.7,4,3.9,4.1l7.3,0.4c2.1,0.1,4.1,0.3,6.1,0.1L69.7,71
			c2.2,0,4-1.8,4-4.1v-5.3h2.7v5.3c0,3.8-2.8,6.7-6.6,6.9l-44.6,1.6c-0.8,0-1.4,0-2.2,0C21.7,75.2,20.4,75.1,19,75.1z"/>
	</g>
	<g>
		<path d="M43.6,34.7c0-6.2,4.1-11.4,9.3-11.4s9.3,5.2,9.3,11.4s-4.3,11.4-9.3,11.4C47.7,46.1,43.6,40.9,43.6,34.7z M45.6,34.7
			c0,5.2,3.2,9.5,7.3,9.5s7.3-4.3,7.3-9.5s-3.2-9.5-7.3-9.5S45.6,29.5,45.6,34.7z"/>
	</g>
	<g>
		<path d="M41.9,34.7c0-7.3,4.9-13.1,11-13.1s11,5.8,11,13.1s-4.9,13.1-11,13.1S41.9,41.9,41.9,34.7z M42.5,34.7
			c0,6.9,4.7,12.4,10.4,12.4s10.4-5.6,10.4-12.4s-4.7-12.4-10.4-12.4C47.1,22.2,42.4,27.8,42.5,34.7z"/>
	</g>
	<g>
		<rect x="21.5" y="5.8" width="2.1" height="57.4"/>
	</g>
	<g>
		<path d="M9,12.7c0-0.4-0.4-0.8-0.8-0.8H5.7v-1.3h2.5c1.2,0,2.1,0.9,2.1,2.1v50H9V12.7z"/>
	</g>
</g>
<path d="M36.6,13c-1,0.9-2.3,1.6-3.9,1.6c-1.6,0-2.8-0.5-3.9-1.6l1.3-0.8c0.5,0.4,1.2,0.6,1.8,0.8V9.6l0.8-0.4l0.8,0.4V13
	c0.6-0.1,1.3-0.4,1.8-0.8L36.6,13z M34.9,20.3c-0.1-0.6-0.1-1.3,0.1-1.9l3.1,1.8l0.8-0.4V19l-3.1-1.8c0.5-0.5,1-0.9,1.7-1.2v-1.6
	c-1.3,0.4-2.5,1.3-3.2,2.6c-0.8,1.3-0.9,2.8-0.5,4.1L34.9,20.3z M27.8,14.6v1.7c0.6,0.3,1.3,0.6,1.7,1.2l-3.1,1.8V20l0.8,0.4
	l3.1-1.8c0.1,0.6,0.3,1.3,0.1,1.9l1.3,0.8c0.4-1.4,0.3-2.8-0.5-4.1c-0.6-1.3-1.9-2.2-3.2-2.6H27.8z"/>
</svg>
